<?xml version="1.0" encoding="utf-8"?>
<!-- Generator: Adobe Illustrator 24.3.0, SVG Export Plug-In . SVG Version: 6.00 Build 0)  -->
<svg version="1.1" id="Layer_1" xmlns="http://www.w3.org/2000/svg" xmlns:xlink="http://www.w3.org/1999/xlink" x="0px" y="0px"
	 viewBox="0 0 171 171" style="enable-background:new 0 0 171 171;" xml:space="preserve">
<style type="text/css">
	.st0{fill:#941CD5;}
	.st1{fill:#571387;}
</style>
<g>
	<path class="st0" d="M64.2,40.8c0.2,0.1,0.5,0.1,0.7,0.1c0.8,0,1.6-0.5,1.9-1.4C71.8,26,78.6,18.2,85.5,18.2c2.1,0,4.2,0.8,6.3,2.2
		c-0.9,1.4-1.4,3.1-1.4,4.8c0,5,4,9,9,9c5,0,9-4,9-9c0-5-4-9-9-9c-1.7,0-3.2,0.5-4.6,1.3c-3-2.3-6.1-3.5-9.3-3.5
		c-8.9,0-16.8,8.6-22.5,24.1C62.6,39.2,63.2,40.4,64.2,40.8z M104.3,25.3c0,2.7-2.2,4.9-4.9,4.9s-4.9-2.2-4.9-4.9
		c0-2.7,2.2-4.9,4.9-4.9S104.3,22.6,104.3,25.3z"/>
	<path class="st0" d="M32.4,78.3c0.5,0,0.9-0.2,1.3-0.5c0.9-0.7,1-2,0.3-2.9c-8.8-10.8-12-20.3-8.6-26.1c1.1-1.8,2.8-3.3,5.1-4.4
		c0.8,1.5,1.9,2.8,3.5,3.7c1.4,0.8,3,1.2,4.5,1.2c3.1,0,6.2-1.6,7.8-4.5c2.5-4.3,1-9.8-3.3-12.3v0c-4.3-2.5-9.8-1-12.3,3.3
		c-0.8,1.5-1.2,3-1.2,4.6c-3.4,1.5-6.1,3.5-7.7,6.3c-4.3,7.5-1.1,18.4,9,30.8C31.2,78.1,31.8,78.3,32.4,78.3z M34.3,37.9
		c0.9-1.6,2.5-2.4,4.2-2.4c0.8,0,1.7,0.2,2.4,0.7c2.3,1.3,3.1,4.3,1.8,6.7c-1.3,2.3-4.3,3.1-6.7,1.8C33.7,43.2,32.9,40.3,34.3,37.9z
		"/>
	<path class="st0" d="M50.4,121.9c-13.6,2.2-23.3,0.1-26.6-5.6c-1.1-1.8-1.5-4.1-1.2-6.6c0.1,0,0.3,0.1,0.4,0.1
		c1.5,0,3.1-0.4,4.5-1.2c4.3-2.5,5.8-8,3.3-12.3c-2.5-4.3-8-5.8-12.3-3.3c-4.3,2.5-5.8,8-3.3,12.3c0.8,1.5,2,2.6,3.4,3.3
		c-0.5,3.7,0,7,1.7,9.8c3.3,5.6,10.3,8.6,20.3,8.6c3.2,0,6.7-0.3,10.5-0.9c1.1-0.2,1.9-1.2,1.7-2.4
		C52.6,122.5,51.6,121.7,50.4,121.9z M20.6,96.5c2.3-1.3,5.3-0.5,6.7,1.8s0.5,5.3-1.8,6.7c-2.3,1.3-5.3,0.5-6.7-1.8
		C17.4,100.8,18.2,97.8,20.6,96.5z"/>
	<path class="st0" d="M106.8,130.2c-1.1-0.4-2.3,0.2-2.7,1.2c-4.9,13.6-11.7,21.4-18.6,21.4c-2.1,0-4.2-0.8-6.3-2.2
		c0.9-1.4,1.4-3.1,1.4-4.8c0-5-4-9-9-9c-5,0-9,4-9,9s4,9,9,9c1.7,0,3.2-0.5,4.6-1.3c3,2.3,6.1,3.5,9.3,3.5c8.9,0,16.8-8.6,22.5-24.1
		C108.4,131.8,107.8,130.6,106.8,130.2z M66.7,145.7c0-2.7,2.2-4.9,4.9-4.9c2.7,0,4.9,2.2,4.9,4.9c0,2.7-2.2,4.9-4.9,4.9
		C68.9,150.6,66.7,148.4,66.7,145.7z"/>
	<path class="st0" d="M137.3,93.1c-0.9,0.7-1,2-0.3,2.9c8.8,10.8,12,20.3,8.6,26.1c-1.1,1.8-2.8,3.3-5.1,4.4c-0.8-1.5-2-2.8-3.5-3.7
		c-4.3-2.5-9.8-1-12.3,3.3c-1.2,2.1-1.5,4.5-0.9,6.8c0.6,2.3,2.1,4.3,4.2,5.5c1.4,0.8,2.9,1.2,4.5,1.2c0.8,0,1.6-0.1,2.3-0.3
		c2.3-0.6,4.3-2.1,5.5-4.2c0.8-1.4,1.2-3,1.2-4.6c3.4-1.4,6.1-3.5,7.7-6.3c4.3-7.5,1.1-18.4-9-30.8
		C139.5,92.5,138.2,92.4,137.3,93.1z M136.7,133.1c-0.6,1.1-1.7,1.9-3,2.3c-1.3,0.3-2.6,0.2-3.7-0.5c-1.1-0.7-1.9-1.7-2.3-3
		c-0.3-1.3-0.2-2.6,0.5-3.7c0.9-1.6,2.5-2.4,4.2-2.4c0.8,0,1.7,0.2,2.4,0.6C137.3,127.8,138.1,130.7,136.7,133.1z"/>
	<path class="st0" d="M155.8,65.8c-0.8-1.4-2-2.5-3.4-3.3c0.5-3.7,0-7-1.7-9.8c-4.3-7.5-15.3-10.2-30.9-7.6
		c-1.1,0.2-1.9,1.2-1.7,2.4c0.2,1.1,1.2,1.9,2.4,1.7c13.6-2.2,23.3-0.1,26.6,5.6c1.1,1.8,1.5,4,1.2,6.6c-1.7-0.1-3.4,0.3-4.9,1.2
		c-4.3,2.5-5.8,8-3.3,12.3c1.2,2.1,3.1,3.6,5.5,4.2c0.8,0.2,1.6,0.3,2.4,0.3c1.6,0,3.1-0.4,4.5-1.2c2.1-1.2,3.6-3.1,4.2-5.5
		C157.3,70.3,157,67.9,155.8,65.8z M150.4,74.5C150.4,74.5,150.4,74.5,150.4,74.5c-1.1,0.7-2.4,0.8-3.7,0.5c-1.3-0.3-2.3-1.1-3-2.3
		c-0.6-1.1-0.8-2.4-0.5-3.7c0.3-1.3,1.1-2.3,2.3-3c0.8-0.4,1.6-0.7,2.4-0.7c0.4,0,0.8,0.1,1.3,0.2c1.3,0.3,2.3,1.1,3,2.3
		C153.6,70.2,152.8,73.2,150.4,74.5z"/>
	<path class="st0" d="M71.6,129.3c1.1,0,2.1-0.9,2.1-2.1v-26.1c2-0.8,3.5-2.8,3.5-5.1c0-3.1-2.5-5.6-5.5-5.6s-5.5,2.5-5.5,5.6
		c0,2.3,1.4,4.3,3.5,5.1v26.1C69.5,128.3,70.5,129.3,71.6,129.3z M71.6,94.6c0.8,0,1.4,0.6,1.4,1.4c0,0.8-0.6,1.4-1.4,1.4
		c-0.8,0-1.4-0.6-1.4-1.4C70.2,95.2,70.8,94.6,71.6,94.6z"/>
	<path class="st0" d="M43.8,69.6c-1.1,0-2.1,0.9-2.1,2.1c0,1.1,0.9,2.1,2.1,2.1h12.2c0.8,2,2.8,3.5,5.1,3.5c3.1,0,5.5-2.5,5.5-5.6
		c0-3.1-2.5-5.5-5.5-5.5c-2.3,0-4.3,1.4-5.1,3.5H43.8z M61.2,70.3c0.8,0,1.4,0.6,1.4,1.4c0,0.8-0.6,1.4-1.4,1.4
		c-0.8,0-1.4-0.6-1.4-1.4C59.8,70.9,60.4,70.3,61.2,70.3z"/>
	<path class="st0" d="M125.8,89.2c0-3.1-2.5-5.5-5.5-5.5c-2.3,0-4.3,1.4-5.1,3.5h-3.2v-1.6c0-1.1-0.9-2.1-2.1-2.1h-8.3v-24
		c2-0.8,3.5-2.8,3.5-5.1c0-3.1-2.5-5.6-5.5-5.6c-3.1,0-5.5,2.5-5.5,5.6c0,2.3,1.4,4.3,3.5,5.1v24H89H82h-8.3v-24
		c2-0.8,3.5-2.8,3.5-5.1c0-3.1-2.5-5.6-5.5-5.6s-5.5,2.5-5.5,5.6c0,2.3,1.4,4.3,3.5,5.1v24h-8.3c-1.1,0-2.1,0.9-2.1,2.1v1.6h-3.2
		c-0.8-2-2.8-3.5-5.1-3.5c-3.1,0-5.5,2.5-5.5,5.5c0,3.1,2.5,5.5,5.5,5.5c2.3,0,4.3-1.4,5.1-3.5h3.2v13.4c-2,0.8-3.5,2.8-3.5,5.1
		c0,3.1,2.5,5.5,5.5,5.5c3.1,0,5.5-2.5,5.5-5.5c0-2.3-1.4-4.3-3.5-5.1V87.6h8.3c0,0,0,0,0.1,0c0,0,0,0,0.1,0H82H89h10.3
		c0,0,0,0,0.1,0c0,0,0,0,0.1,0h8.3v17.1c-2,0.8-3.5,2.8-3.5,5.1c0,3.1,2.5,5.5,5.5,5.5c3.1,0,5.5-2.5,5.5-5.5c0-2.3-1.4-4.3-3.5-5.1
		V91.3h3.2c0.8,2,2.8,3.5,5.1,3.5C123.3,94.8,125.8,92.3,125.8,89.2z M99.4,52.9c0.8,0,1.4,0.6,1.4,1.4c0,0.8-0.6,1.4-1.4,1.4
		c-0.8,0-1.4-0.6-1.4-1.4C98,53.5,98.6,52.9,99.4,52.9z M71.6,52.9c0.8,0,1.4,0.6,1.4,1.4c0,0.8-0.6,1.4-1.4,1.4
		c-0.8,0-1.4-0.6-1.4-1.4C70.2,53.5,70.8,52.9,71.6,52.9z M50.8,90.6c-0.8,0-1.4-0.6-1.4-1.4c0-0.8,0.6-1.4,1.4-1.4s1.4,0.6,1.4,1.4
		C52.2,90,51.5,90.6,50.8,90.6z M61.2,111.3c-0.8,0-1.4-0.6-1.4-1.4c0-0.8,0.6-1.4,1.4-1.4c0.8,0,1.4,0.6,1.4,1.4
		C62.6,110.6,62,111.3,61.2,111.3z M109.8,111.3c-0.8,0-1.4-0.6-1.4-1.4c0-0.8,0.6-1.4,1.4-1.4c0.8,0,1.4,0.6,1.4,1.4
		C111.2,110.6,110.6,111.3,109.8,111.3z M120.2,90.6c-0.8,0-1.4-0.6-1.4-1.4c0-0.8,0.6-1.4,1.4-1.4c0.8,0,1.4,0.6,1.4,1.4
		C121.6,90,121,90.6,120.2,90.6z"/>
	<path class="st0" d="M104.3,71.7c0,3.1,2.5,5.6,5.5,5.6c2.3,0,4.3-1.4,5.1-3.5h12.2c1.1,0,2.1-0.9,2.1-2.1c0-1.1-0.9-2.1-2.1-2.1
		h-12.2c-0.8-2-2.8-3.5-5.1-3.5C106.7,66.1,104.3,68.6,104.3,71.7z M109.8,70.3c0.8,0,1.4,0.6,1.4,1.4c0,0.8-0.6,1.4-1.4,1.4
		c-0.8,0-1.4-0.6-1.4-1.4C108.4,70.9,109,70.3,109.8,70.3z"/>
	<path class="st0" d="M99.4,129.3c1.1,0,2.1-0.9,2.1-2.1v-26.1c2-0.8,3.5-2.8,3.5-5.1c0-3.1-2.5-5.6-5.5-5.6c-3.1,0-5.5,2.5-5.5,5.6
		c0,2.3,1.4,4.3,3.5,5.1v26.1C97.3,128.3,98.2,129.3,99.4,129.3z M99.4,94.6c0.8,0,1.4,0.6,1.4,1.4c0,0.8-0.6,1.4-1.4,1.4
		c-0.8,0-1.4-0.6-1.4-1.4C98,95.2,98.6,94.6,99.4,94.6z"/>
	<path class="st1" d="M71.6,41.8c-5.8,0-11.2,3.3-14,8.4c-7.4,2.9-12.4,10-12.4,18.1c0,0.1,0,0.1,0,0.2c-6.4,3.3-10.4,9.9-10.4,17.2
		c0,7.3,4.1,13.8,10.4,17.2c0,0.1,0,0.1,0,0.2c0,8.1,5,15.2,12.4,18.1c2.8,5.1,8.2,8.3,14,8.3c4.6,0,8.9-2,12-5.4
		c0.3-0.4,0.5-0.9,0.5-1.4v-74c0-0.5-0.2-1-0.5-1.4C80.5,43.7,76.2,41.8,71.6,41.8z M80,121.7c-2.2,2.2-5.2,3.5-8.3,3.5
		c-4.5,0-8.7-2.6-10.6-6.7c0,0,0,0,0,0c-0.1-0.2-0.3-0.5-0.5-0.6c-0.2-0.2-0.4-0.3-0.7-0.4c0,0,0,0,0,0c-6.2-2.1-10.4-7.9-10.4-14.5
		c0-0.4,0-0.8,0.1-1.2c0,0,0-0.1,0-0.1c0-0.2,0-0.3-0.1-0.4c0-0.1,0-0.3-0.1-0.4c0-0.1-0.1-0.2-0.2-0.3c-0.1-0.1-0.1-0.2-0.2-0.3
		c-0.1-0.1-0.2-0.2-0.3-0.2c-0.1-0.1-0.2-0.2-0.4-0.3c0,0,0,0-0.1,0c-5.6-2.4-9.2-7.9-9.2-14c0-6.1,3.6-11.6,9.2-14c0,0,0,0,0.1,0
		c0.1-0.1,0.2-0.2,0.4-0.3c0.1-0.1,0.2-0.1,0.3-0.2c0.1-0.1,0.1-0.2,0.2-0.3c0.1-0.1,0.1-0.2,0.2-0.3c0-0.1,0-0.2,0.1-0.4
		c0-0.1,0.1-0.3,0.1-0.4c0,0,0-0.1,0-0.1c0-0.4-0.1-0.8-0.1-1.2c0-6.6,4.2-12.4,10.4-14.5c0,0,0,0,0,0c0.3-0.1,0.5-0.3,0.8-0.5
		c0.2-0.2,0.3-0.3,0.4-0.6c0,0,0,0,0,0c1.9-4.1,6.1-6.8,10.7-6.8c3.1,0,6.1,1.2,8.3,3.5L80,121.7L80,121.7z"/>
	<path class="st1" d="M136.2,85.6c0-7.3-4.1-13.8-10.4-17.2c0-0.1,0-0.1,0-0.2c0-8-4.9-15.2-12.4-18.1c-2.8-5.1-8.2-8.4-14-8.4
		c-4.6,0-8.9,2-12,5.4c-0.3,0.4-0.5,0.9-0.5,1.4v74c0,0.5,0.2,1,0.5,1.4c3,3.4,7.4,5.4,12,5.4c5.8,0,11.2-3.2,14-8.3
		c7.4-2.9,12.4-10,12.4-18.1c0-0.1,0-0.1,0-0.2C132.1,99.4,136.2,92.8,136.2,85.6z M122.8,99.6C122.8,99.6,122.8,99.6,122.8,99.6
		c-0.2,0.1-0.3,0.2-0.4,0.3c-0.1,0.1-0.2,0.1-0.3,0.2c-0.1,0.1-0.1,0.2-0.2,0.3c-0.1,0.1-0.2,0.2-0.2,0.4c0,0.1,0,0.2-0.1,0.3
		c0,0.2-0.1,0.3-0.1,0.5c0,0,0,0,0,0.1c0,0.4,0,0.8,0,1.3c0,6.6-4.2,12.4-10.4,14.5c0,0,0,0,0,0c-0.3,0.1-0.5,0.2-0.7,0.4
		c-0.2,0.2-0.4,0.4-0.5,0.6c0,0,0,0,0,0c-2,4.1-6.1,6.7-10.6,6.7c-3.1,0-6.1-1.2-8.3-3.5V49.4c2.2-2.2,5.2-3.5,8.3-3.5
		c4.5,0,8.7,2.6,10.7,6.8c0,0,0,0,0,0c0.1,0.2,0.3,0.4,0.4,0.6c0.2,0.2,0.5,0.4,0.7,0.5c0,0,0,0,0,0c6.2,2.1,10.4,7.9,10.4,14.5
		c0,0.4,0,0.8-0.1,1.2c0,0,0,0.1,0,0.1c0,0.1,0,0.3,0,0.4c0,0.1,0,0.3,0.1,0.4c0,0.1,0.1,0.2,0.2,0.3c0.1,0.1,0.1,0.2,0.2,0.4
		c0.1,0.1,0.2,0.1,0.3,0.2c0.1,0.1,0.2,0.2,0.4,0.3c0,0,0,0,0.1,0c5.6,2.4,9.2,7.9,9.2,14C132,91.7,128.4,97.2,122.8,99.6z"/>
</g>
</svg>
