<?xml version="1.0" encoding="utf-8"?>
<!-- Generator: Adobe Illustrator 24.3.0, SVG Export Plug-In . SVG Version: 6.00 Build 0)  -->
<svg version="1.1" id="Layer_1" xmlns="http://www.w3.org/2000/svg" xmlns:xlink="http://www.w3.org/1999/xlink" x="0px" y="0px"
	 viewBox="0 0 171 171" style="enable-background:new 0 0 171 171;" xml:space="preserve">
<style type="text/css">
	.st0{fill:#571387;}
	.st1{fill:#941CD5;}
</style>
<g>
	<path class="st0" d="M131,59.7c0-25.1-20.4-45.5-45.5-45.5C60.4,14.2,40,34.7,40,59.7v34.4c0,26.4,26.4,62.7,45.5,62.7
		c19.1,0,45.5-36.3,45.5-62.7V59.7z M125.9,94.1c0,24.8-25.4,57.6-40.4,57.6c-15,0-40.4-32.7-40.4-57.6V59.7
		c0-22.3,18.1-40.4,40.4-40.4c22.3,0,40.4,18.1,40.4,40.4V94.1z"/>
	<path class="st1" d="M121.4,69.1c0-2.1-1.3-3.9-3.2-4.6v-6.4c1.8-0.7,3.2-2.5,3.2-4.7c0-2.8-2.3-5-5-5c-2.8,0-5,2.2-5,5
		c0,2.1,1.3,3.9,3.1,4.7v6.4c-1.8,0.7-3.1,2.5-3.1,4.6c0,2.1,1.3,3.9,3.1,4.7v6.4c-1.8,0.7-3.1,2.5-3.1,4.7c0,2.1,1.3,3.9,3.1,4.7
		v9.6c-1.3,0.5-2.3,1.5-2.8,2.8H106c-0.5-1.3-1.5-2.3-2.8-2.8v-9.6c1.8-0.7,3.1-2.5,3.1-4.7c0-2.1-1.3-3.9-3.1-4.7V67.5
		c1.8-0.7,3.1-2.5,3.1-4.7c0-2.1-1.3-3.9-3.1-4.7V45.5c1.8-0.7,3.1-2.5,3.1-4.7c0-2.8-2.3-5-5-5c-2.8,0-5,2.3-5,5
		c0,2.1,1.3,3.9,3.1,4.7v12.7c-1.8,0.7-3.1,2.5-3.1,4.7c0,2.1,1.3,3.9,3.1,4.7v12.7c-1.8,0.7-3.1,2.5-3.1,4.7c0,2.1,1.3,3.9,3.1,4.7
		v9.6c-1.3,0.5-2.3,1.5-2.8,2.8h-5.8c-0.5-1.3-1.5-2.3-2.8-2.8v-9.6c1.8-0.7,3.1-2.5,3.1-4.7c0-2.1-1.3-3.9-3.1-4.7v-19
		c1.8-0.7,3.1-2.5,3.1-4.6c0-2.1-1.3-3.9-3.1-4.7v-19c1.8-0.7,3.1-2.6,3.1-4.7c0-2.8-2.3-5-5-5s-5,2.3-5,5c0,2.1,1.3,3.9,3.1,4.7v19
		c-1.8,0.7-3.1,2.5-3.1,4.7c0,2.1,1.3,3.9,3.1,4.6v19c-1.8,0.7-3.1,2.5-3.1,4.7c0,2.1,1.3,3.9,3.1,4.7v9.6c-1.3,0.5-2.3,1.5-2.8,2.8
		h-6.6c-1,0-1.9,0.9-1.9,1.9c0,1,0.8,1.9,1.9,1.9h6.7c0.7,1.8,2.5,3.2,4.7,3.2c2.1,0,3.9-1.3,4.6-3.2h5.8c0.7,1.8,2.5,3.2,4.7,3.2
		c2.1,0,3.9-1.3,4.7-3.2h5.8c0.2,0.4,0.4,0.8,0.7,1.2l-10.7,20.3c-0.2,0-0.3-0.1-0.5-0.1c-2.1,0-3.9,1.3-4.7,3.1H75.1
		c-0.7-1.8-2.5-3.1-4.6-3.1c-0.3,0-0.5,0-0.8,0.1l-4.7-7.8c0.6-0.8,1-1.9,1-3c0-2.4-1.7-4.5-4-4.9l-3-16c1.4-0.9,2.3-2.5,2.3-4.2
		c0-2.1-1.3-3.9-3.1-4.6v-16C59.9,69.7,61,68,61,66c0-2.8-2.3-5-5-5c-2.8,0-5,2.3-5,5c0,2.2,1.4,4.1,3.4,4.7v15.8
		c-1.8,0.7-3.1,2.5-3.1,4.6c0,2.4,1.7,4.5,4,4.9l3,16c-1.4,0.9-2.3,2.5-2.3,4.2c0,2.8,2.3,5,5,5c0.3,0,0.5,0,0.8-0.1l4.7,7.8
		c-0.6,0.8-1,1.9-1,3c0,2.8,2.3,5,5,5c2.1,0,3.9-1.3,4.6-3.1h21.5c0.7,1.8,2.5,3.1,4.7,3.1c2.8,0,5-2.3,5-5c0-1.2-0.5-2.4-1.2-3.2
		l10.6-20.1c0.2,0,0.5,0.1,0.7,0.1c2.8,0,5-2.3,5-5c0-2.1-1.3-3.9-3.2-4.7v-9.6c1.8-0.7,3.2-2.6,3.2-4.7c0-2.1-1.3-3.9-3.2-4.7v-6.4
		C120.1,73,121.4,71.3,121.4,69.1z M115.1,69.1c0-0.7,0.6-1.3,1.3-1.3c0.7,0,1.3,0.6,1.3,1.3c0,0.7-0.6,1.3-1.3,1.3
		C115.7,70.4,115.1,69.8,115.1,69.1z M116.4,52.2c0.7,0,1.3,0.6,1.3,1.3c0,0.7-0.6,1.3-1.3,1.3c-0.7,0-1.3-0.6-1.3-1.3
		C115.1,52.7,115.7,52.2,116.4,52.2z M117.7,84.9c0,0.7-0.6,1.3-1.3,1.3c-0.7,0-1.3-0.6-1.3-1.3c0-0.7,0.6-1.3,1.3-1.3
		C117.1,83.6,117.7,84.2,117.7,84.9z M100,84.9c0-0.7,0.6-1.3,1.3-1.3c0.7,0,1.3,0.6,1.3,1.3c0,0.7-0.6,1.3-1.3,1.3
		C100.6,86.1,100,85.6,100,84.9z M100,62.9c0-0.7,0.6-1.3,1.3-1.3c0.7,0,1.3,0.6,1.3,1.3c0,0.7-0.6,1.3-1.3,1.3
		C100.6,64.1,100,63.6,100,62.9z M101.3,39.6c0.7,0,1.3,0.6,1.3,1.3c0,0.7-0.6,1.3-1.3,1.3c-0.7,0-1.3-0.6-1.3-1.3
		C100,40.1,100.6,39.6,101.3,39.6z M85,84.9c0-0.7,0.6-1.3,1.3-1.3c0.7,0,1.3,0.6,1.3,1.3c0,0.7-0.6,1.3-1.3,1.3
		C85.5,86.1,85,85.6,85,84.9z M85,56.6c0-0.7,0.6-1.3,1.3-1.3c0.7,0,1.3,0.6,1.3,1.3c0,0.7-0.6,1.3-1.3,1.3
		C85.5,57.8,85,57.3,85,56.6z M86.2,27c0.7,0,1.3,0.6,1.3,1.3s-0.6,1.3-1.3,1.3c-0.7,0-1.3-0.6-1.3-1.3S85.5,27,86.2,27z M86.2,105
		c-0.7,0-1.3-0.6-1.3-1.3c0-0.7,0.6-1.3,1.3-1.3c0.7,0,1.3,0.6,1.3,1.3C87.5,104.4,86.9,105,86.2,105z M101.3,105
		c-0.7,0-1.3-0.6-1.3-1.3c0-0.7,0.6-1.3,1.3-1.3c0.7,0,1.3,0.6,1.3,1.3C102.6,104.4,102,105,101.3,105z M56,64.7
		c0.7,0,1.3,0.6,1.3,1.3c0,0.7-0.6,1.3-1.3,1.3c-0.7,0-1.3-0.6-1.3-1.3C54.8,65.3,55.3,64.7,56,64.7z M56.3,89.9
		c0.7,0,1.3,0.6,1.3,1.3c0,0.7-0.6,1.3-1.3,1.3S55,91.9,55,91.2C55,90.5,55.6,89.9,56.3,89.9z M59.8,116.3c0-0.7,0.6-1.3,1.3-1.3
		c0.7,0,1.3,0.6,1.3,1.3c0,0.7-0.6,1.3-1.3,1.3C60.4,117.6,59.8,117,59.8,116.3z M70.5,133.3c-0.7,0-1.3-0.6-1.3-1.3
		c0-0.7,0.6-1.3,1.3-1.3c0.7,0,1.3,0.6,1.3,1.3C71.8,132.8,71.2,133.3,70.5,133.3z M101.3,133.3c-0.7,0-1.3-0.6-1.3-1.3
		c0-0.7,0.6-1.3,1.3-1.3c0.7,0,1.3,0.6,1.3,1.3C102.6,132.8,102,133.3,101.3,133.3z M116.4,105c-0.7,0-1.3-0.6-1.3-1.3
		c0-0.7,0.6-1.3,1.3-1.3c0.7,0,1.3,0.6,1.3,1.3C117.7,104.4,117.1,105,116.4,105z"/>
	<path class="st1" d="M66.1,84.9c0,2.1,1.3,3.9,3.1,4.7v11.3c0,1,0.8,1.9,1.9,1.9c1,0,1.9-0.9,1.9-1.9V89.5c1.8-0.7,3.1-2.5,3.1-4.7
		c0-2.1-1.3-3.9-3.1-4.7V67.5c1.8-0.7,3.1-2.5,3.1-4.7c0-2.1-1.3-3.9-3.1-4.7V45.5c1.8-0.7,3.1-2.5,3.1-4.7c0-2.8-2.3-5-5-5
		c-2.8,0-5,2.3-5,5c0,2.1,1.3,3.9,3.1,4.7v12.7c-1.8,0.7-3.1,2.5-3.1,4.7c0,2.1,1.3,3.9,3.1,4.7v12.7C67.4,81,66.1,82.8,66.1,84.9z
		 M72.4,84.9c0,0.7-0.6,1.3-1.3,1.3c-0.7,0-1.3-0.6-1.3-1.3c0-0.7,0.6-1.3,1.3-1.3C71.8,83.6,72.4,84.2,72.4,84.9z M69.9,62.9
		c0-0.7,0.6-1.3,1.3-1.3c0.7,0,1.3,0.6,1.3,1.3c0,0.7-0.6,1.3-1.3,1.3C70.4,64.1,69.9,63.6,69.9,62.9z M71.1,39.6
		c0.7,0,1.3,0.6,1.3,1.3c0,0.7-0.6,1.3-1.3,1.3c-0.7,0-1.3-0.6-1.3-1.3C69.9,40.1,70.4,39.6,71.1,39.6z"/>
	<path class="st1" d="M69.7,44.1l-3.5-1.9L56,61.3l3.5,1.9L69.7,44.1z"/>
	<path class="st1" d="M102,107.5l-1.7-2l-12.8,11l1.7,2L102,107.5z"/>
	<path class="st1" d="M85.6,116.2l-13.1-10.5l-1.7,2.1l13.1,10.5L85.6,116.2z"/>
	<path class="st1" d="M88.3,115.5l-0.6-10l-2.7,0.2l0.6,10L88.3,115.5z"/>
	<path class="st1" d="M86,30.3l-2.6-3L71.8,37.5l2.6,3L86,30.3z"/>
	<path class="st1" d="M101.1,38.1L89.9,27.6l-2.7,2.9L98.4,41L101.1,38.1z"/>
	<path class="st1" d="M115.7,51.3l-11.2-10.5l-2.7,2.9L113,54.2L115.7,51.3z"/>
	<path class="st1" d="M84.9,118.7c-1.6,0.6-2.7,2.2-2.7,4c0,2.4,1.9,4.3,4.3,4.3c2.4,0,4.3-1.9,4.3-4.3c0-1.8-1.1-3.3-2.7-4H84.9z
		 M86.5,121.9c0.6,0,1.1,0.5,1.1,1.1c0,0.6-0.5,1.1-1.1,1.1c-0.6,0-1.1-0.5-1.1-1.1C85.4,122.4,85.9,121.9,86.5,121.9z"/>
	<path class="st1" d="M68.7,103.2c-1.7,0.7-2.9,2.3-2.9,4.2c0,2.5,2.1,4.6,4.6,4.6c2.5,0,4.6-2.1,4.6-4.6c0-1.9-1.2-3.6-2.9-4.2
		H68.7z M70.4,106.7c0.6,0,1.2,0.5,1.2,1.2c0,0.6-0.5,1.2-1.2,1.2c-0.6,0-1.2-0.5-1.2-1.2C69.2,107.2,69.8,106.7,70.4,106.7z"/>
</g>
</svg>
