<?xml version="1.0" encoding="utf-8"?>
<!-- Generator: Adobe Illustrator 24.3.0, SVG Export Plug-In . SVG Version: 6.00 Build 0)  -->
<svg version="1.1" id="Layer_1" xmlns="http://www.w3.org/2000/svg" xmlns:xlink="http://www.w3.org/1999/xlink" x="0px" y="0px"
	 viewBox="0 0 171 171" style="enable-background:new 0 0 171 171;" xml:space="preserve">
<style type="text/css">
	.st0{fill:#941CD5;}
	.st1{fill:#571387;}
</style>
<g>
	<path class="st0" d="M111.6,29.8c0-0.3-0.1-0.6-0.2-0.9c0,0,0,0,0,0c-0.2-0.3-0.4-0.5-0.7-0.7c0,0,0-0.1-0.1-0.1L86.5,14.3
		c-0.6-0.4-1.4-0.4-2.1,0L60.4,28.2c0,0,0,0.1-0.1,0.1c-0.3,0.2-0.5,0.4-0.7,0.7c0,0,0,0,0,0c-0.2,0.3-0.2,0.6-0.2,0.9
		c0,0,0,0.1,0,0.1v27.8c0,0.7,0.4,1.4,1,1.8l24.1,13.9c0,0,0.1,0,0.1,0c0.3,0.1,0.6,0.3,0.9,0.3c0.3,0,0.7-0.1,0.9-0.3
		c0,0,0.1,0,0.1,0l24.1-13.9c0.6-0.4,1-1.1,1-1.8L111.6,29.8C111.6,29.9,111.6,29.9,111.6,29.8z M85.5,18.4l19.9,11.5L85.5,41.4
		L65.6,29.9L85.5,18.4z M63.5,33.5L83.4,45v23L63.5,56.5V33.5z M87.6,68V45l19.9-11.5v23L87.6,68z"/>
	<path class="st1" d="M147.7,50.8c0-0.7-0.4-1.4-1-1.8l-24.1-13.9c0,0-0.1,0-0.1,0c-0.3-0.1-0.6-0.3-0.9-0.3c-0.3,0-0.7,0.1-0.9,0.3
		c0,0-0.1,0-0.1,0L96.5,49c-0.6,0.4-1,1.1-1,1.8v27.8c0,0,0,0.1,0,0.1c0,0.3,0.1,0.6,0.2,0.9c0.2,0.3,0.4,0.6,0.8,0.8l0,0l0,0
		l24,13.9c0.3,0.2,0.7,0.3,1,0.3c0.4,0,0.7-0.1,1-0.3l24-13.9c0,0,0,0,0,0l0,0c0.3-0.2,0.6-0.5,0.8-0.8c0.2-0.3,0.2-0.6,0.2-0.9
		c0,0,0-0.1,0-0.1L147.7,50.8L147.7,50.8z M143.6,75l-19.9-11.5v-23L143.6,52V75z M119.5,40.5v23L99.6,75V52L119.5,40.5z
		 M121.6,90.1l-19.9-11.5l19.9-11.5l19.9,11.5L121.6,90.1z"/>
	<path class="st0" d="M147.7,92.3c0-0.3-0.1-0.6-0.2-0.9c0,0,0,0,0,0c-0.2-0.3-0.4-0.5-0.7-0.7c0,0,0-0.1-0.1-0.1l-24.1-13.9
		c-0.6-0.4-1.4-0.4-2.1,0L96.5,90.6c0,0,0,0.1-0.1,0.1c-0.3,0.2-0.5,0.4-0.7,0.7c0,0,0,0,0,0c-0.2,0.3-0.2,0.6-0.2,0.9
		c0,0,0,0.1,0,0.1v27.8c0,0.7,0.4,1.4,1,1.8l24.1,13.9c0,0,0.1,0,0.1,0c0.3,0.1,0.6,0.3,0.9,0.3c0.3,0,0.7-0.1,0.9-0.3
		c0,0,0.1,0,0.1,0l24.1-13.9c0.6-0.4,1-1,1-1.8V92.4C147.7,92.4,147.7,92.4,147.7,92.3z M121.6,80.9l19.9,11.5l-19.9,11.5
		l-19.9-11.5L121.6,80.9z M99.6,96l19.9,11.5v23L99.6,119V96z M123.7,130.5v-23L143.6,96v23L123.7,130.5z"/>
	<path class="st1" d="M111.6,113.3c0-0.7-0.4-1.4-1-1.8L86.5,97.6c0,0-0.1,0-0.1,0c-0.3-0.1-0.6-0.3-0.9-0.3c-0.3,0-0.7,0.1-0.9,0.3
		c0,0-0.1,0-0.1,0l-24.1,13.9c-0.6,0.4-1,1.1-1,1.8v27.8c0,0,0,0.1,0,0.1c0,0.3,0.1,0.6,0.2,0.9c0,0,0,0,0,0
		c0.2,0.3,0.4,0.5,0.7,0.7c0,0,0,0.1,0.1,0.1l24.1,13.9c0.3,0.2,0.7,0.3,1,0.3c0.4,0,0.7-0.1,1-0.3l24-13.9c0,0,0,0,0,0l0,0
		c0.3-0.2,0.6-0.5,0.8-0.8c0.2-0.3,0.2-0.6,0.2-0.9c0,0,0-0.1,0-0.1L111.6,113.3L111.6,113.3z M107.5,137.5L87.6,126v-23l19.9,11.5
		V137.5z M83.4,103v23l-19.9,11.5v-23L83.4,103z M85.5,152.6l-19.9-11.5l19.9-11.5l19.9,11.5L85.5,152.6z"/>
	<path class="st0" d="M75.5,92.3c0-0.3-0.1-0.6-0.2-0.9c0,0,0,0,0,0c-0.2-0.3-0.4-0.5-0.7-0.7c0,0,0-0.1-0.1-0.1L50.5,76.8
		c-0.6-0.4-1.4-0.4-2.1,0L24.3,90.6c0,0,0,0.1-0.1,0.1c-0.3,0.2-0.5,0.4-0.7,0.7c0,0,0,0,0,0c-0.2,0.3-0.2,0.6-0.2,0.9
		c0,0,0,0.1,0,0.1v27.8c0,0.7,0.4,1.4,1,1.8l24.1,13.9c0,0,0.1,0,0.1,0c0.3,0.1,0.6,0.3,0.9,0.3c0.3,0,0.7-0.1,0.9-0.3
		c0,0,0.1,0,0.1,0L74.5,122c0.6-0.4,1-1,1-1.8V92.4C75.5,92.4,75.5,92.4,75.5,92.3z M49.4,80.9l19.9,11.5l-19.9,11.5L29.5,92.4
		L49.4,80.9z M27.4,96l19.9,11.5v23L27.4,119V96z M51.5,130.5v-23L71.4,96v23L51.5,130.5z"/>
	<path class="st1" d="M71.4,65.9V75L51.5,63.5v-23l7.9,4.6v-4.8l-8.9-5.1c0,0-0.1,0-0.1,0c-0.3-0.1-0.6-0.3-0.9-0.3
		c-0.3,0-0.7,0.1-0.9,0.3c0,0-0.1,0-0.1,0L24.3,49c-0.6,0.4-1,1.1-1,1.8v27.8c0,0,0,0.1,0,0.1c0,0.3,0.1,0.6,0.2,0.9
		c0.2,0.3,0.4,0.6,0.8,0.8l0,0l0,0l24,13.9c0.3,0.2,0.7,0.3,1,0.3c0.4,0,0.7-0.1,1-0.3l24-13.9l0,0l0,0c0.3-0.2,0.6-0.5,0.8-0.8
		c0.2-0.3,0.2-0.6,0.2-0.9c0,0,0-0.1,0-0.1V68.3L71.4,65.9z M27.4,52l19.9-11.5v23L27.4,75V52z M49.4,90.1L29.5,78.6l19.9-11.5
		l19.9,11.5L49.4,90.1z"/>
	<path class="st1" d="M71.4,61.1l4.1,2.4V50.8c0-0.7-0.4-1.4-1-1.8l-11-6.3v4.8l7.9,4.6V61.1z"/>
</g>
</svg>
