<svg width="144" height="50" viewBox="0 0 144 50" fill="none" xmlns="http://www.w3.org/2000/svg">
<path fill-rule="evenodd" clip-rule="evenodd" d="M54.4753 49.1851C52.4232 49.1851 50.4249 49.1851 48.2925 49.1851C48.1712 47.9823 48.0516 46.8022 47.9378 45.6817C46.9214 46.5797 45.993 47.6313 44.8583 48.3624C40.5631 51.1298 32.7131 49.6735 31.7367 42.7772C31.0565 37.9735 32.964 34.2094 38.1988 32.8236C40.4531 32.2265 42.8483 32.1459 45.1859 31.8858C45.9974 31.7956 46.8282 31.8714 47.6332 31.8714C48.3844 28.1018 46.1537 25.4228 42.4127 25.4958C39.9548 25.5445 37.7358 26.3335 35.672 27.6236C35.4301 27.7751 35.1892 27.929 34.8619 28.1361C34.7255 26.4254 34.5798 24.8192 34.4887 23.2103C34.4763 22.9919 34.682 22.642 34.8797 22.5488C39.0854 20.5673 43.4813 20.1111 47.9855 21.1891C51.3238 21.9884 53.1812 24.2982 53.7772 27.6096C54.0164 28.9381 54.1302 30.3046 54.1436 31.6558C54.1881 36.1168 54.1367 40.5781 54.1744 45.0391C54.1854 46.3899 54.3656 47.7383 54.4753 49.1851ZM47.7336 35.5101C45.2832 35.3524 42.6492 35.6774 40.9261 36.3536C39.3225 36.9826 38.266 38.1195 38.0439 39.8491C37.8187 41.5995 38.145 43.2279 39.7228 44.3083C41.6231 45.6087 45.6047 45.3859 46.9149 42.2343C47.8131 40.0725 47.8104 37.8319 47.7336 35.5101Z" fill="black"/>
<path fill-rule="evenodd" clip-rule="evenodd" d="M97.0868 37.0129C91.5771 37.0129 86.2339 37.0129 80.9038 37.0129C80.0409 40.2876 82.4453 43.9575 85.8402 44.4836C89.1507 44.9964 92.3053 44.5504 95.2584 42.5114C95.342 43.9026 95.424 45.2031 95.498 46.5038C95.5765 47.8814 95.5789 47.8944 94.2584 48.3766C90.8351 49.6277 87.3344 50.0345 83.7359 49.2931C79.8274 48.488 76.962 46.2478 75.5267 42.5803C73.1974 36.6314 73.5407 30.7285 77.0374 25.2989C81.3466 18.6086 91.5723 19.4415 94.8657 25.4956C96.0439 27.6622 96.6251 29.9888 96.8633 32.408C97.011 33.899 97.0138 35.4043 97.0868 37.0129ZM80.7616 32.6472C84.0324 32.6472 87.2302 32.6472 90.6223 32.6472C90.3217 31.0791 90.2042 29.5892 89.7409 28.2164C88.442 24.3758 84.2507 24.732 82.6386 26.6164C81.1595 28.3453 80.7852 30.4248 80.7616 32.6472Z" fill="black"/>
<path fill-rule="evenodd" clip-rule="evenodd" d="M127.896 37.0319C122.525 37.0319 117.165 37.0319 111.813 37.0319C111.449 40.9263 113.307 43.8038 116.658 44.4303C117.86 44.6545 119.126 44.6456 120.354 44.5787C122.447 44.4649 124.406 43.8521 126.25 42.4636C126.349 44.2662 126.449 45.9255 126.515 47.5854C126.521 47.7263 126.326 47.9511 126.175 48.0108C121.493 49.8459 116.739 50.5225 111.998 48.3628C108.131 46.6013 106.19 43.2862 105.483 39.2386C104.702 34.7663 105.109 30.4113 107.325 26.3547C111.191 19.2755 119.385 19.6162 123.388 22.6859C125.606 24.3866 126.823 26.763 127.31 29.4166C127.743 31.7782 127.787 34.2111 127.996 36.6127C128.005 36.72 127.946 36.8328 127.896 37.0319ZM121.376 32.7077C121.408 30.8493 121.239 29.0738 120.385 27.4392C119.141 25.0564 115.95 24.4843 113.972 26.3126C112.117 28.027 111.772 30.2934 111.746 32.7077C114.99 32.7077 118.151 32.7077 121.376 32.7077Z" fill="black"/>
<path fill-rule="evenodd" clip-rule="evenodd" d="M23.9363 11.1768C23.9363 13.0465 23.9363 14.8099 23.9363 16.6708C21.1385 16.6708 18.3807 16.6708 15.5366 16.6708C15.5366 27.5358 15.5366 38.3028 15.5366 49.1394C13.1644 49.1394 10.8796 49.1394 8.47856 49.1394C8.47856 38.3422 8.47856 27.5553 8.47856 16.7064C5.60086 16.7064 2.83727 16.7064 0 16.7064C0 14.8398 0 13.0352 0 11.1768C7.9789 11.1768 15.9369 11.1768 23.9363 11.1768Z" fill="black"/>
<path fill-rule="evenodd" clip-rule="evenodd" d="M52.266 21.085C54.4192 21.085 56.5741 21.0658 58.7274 21.1141C58.9388 21.1189 59.2603 21.5004 59.3305 21.7606C60.6952 26.8224 62.029 31.8927 63.3721 36.9604C63.8652 38.8219 64.3669 40.6807 65.04 42.5511C65.5458 40.6656 66.0537 38.7797 66.5575 36.8936C67.8941 31.8849 69.2399 26.8775 70.5521 21.862C70.7053 21.2773 70.914 21.0538 71.5552 21.0713C73.4428 21.1227 75.3322 21.0898 77.3463 21.0898C77.0361 22.1397 76.7582 23.1117 76.4614 24.0789C73.9644 32.2149 71.4579 40.3482 68.9763 48.4893C68.8074 49.0449 68.5541 49.2283 67.9852 49.2204C65.7991 49.1916 63.612 49.1988 61.4258 49.2166C60.9608 49.2204 60.6794 49.1422 60.5231 48.6243C57.7657 39.518 54.9888 30.4179 52.2176 21.3156C52.2104 21.2906 52.2283 21.2584 52.266 21.085Z" fill="black"/>
<path fill-rule="evenodd" clip-rule="evenodd" d="M87.796 14.9351C86.3182 17.1723 84.1859 16.9659 82.1327 16.7791C79.9994 16.5851 80.0076 16.507 80.036 14.3514C80.0391 14.0868 80.0364 13.8222 80.0364 13.6148C81.0796 13.8119 82.0868 14.0319 83.105 14.1783C83.4371 14.2256 83.8312 14.1509 84.1321 14.0014C84.3836 13.8774 84.6729 13.5775 84.7023 13.3266C84.7315 13.0822 84.5173 12.7021 84.2952 12.5567C83.8329 12.2541 83.3072 12.0354 82.7863 11.8397C81.6728 11.4212 80.7475 10.7898 80.1156 9.53605C80.1156 10.2723 80.1156 10.83 80.1156 11.487C77.8098 11.487 75.5541 11.487 73.3012 11.487C73.2803 14.2023 75.1662 14.7932 79.4932 13.4085C79.4932 14.251 79.5107 15.0366 79.4788 15.8208C79.4723 15.9781 79.3095 16.2215 79.1673 16.2678C76.9842 16.9755 74.7923 17.2624 72.635 16.1851C71.2792 15.5082 70.5331 14.3373 70.1222 12.9211C70.0695 12.7381 70.0184 12.5536 69.8357 12.3877C69.8357 13.7783 69.8357 15.1682 69.8357 16.6201C68.6397 16.6201 67.5036 16.6201 66.2363 16.6201C66.2363 16.3024 66.2363 15.9901 66.2363 15.6775C66.2363 13.4907 66.2414 11.3036 66.2311 9.11718C66.2291 8.76723 66.2726 8.33364 66.0927 8.08754C65.81 7.7016 65.3685 7.21625 64.9683 7.19157C64.5563 7.16621 63.9604 7.54635 63.7242 7.92407C63.4504 8.36245 63.4007 8.99003 63.3925 9.5381C63.3596 11.8699 63.3788 14.2016 63.3788 16.6098C62.1975 16.6098 61.0641 16.6098 59.8208 16.6098C59.8208 12.5454 59.8208 8.46113 59.8208 4.32648C60.8068 4.32648 61.8287 4.32648 62.9542 4.32648C62.986 4.87729 63.0172 5.42124 63.0604 6.16879C64.2403 4.12083 65.9381 3.61321 67.8861 4.44234C69.7795 5.2485 69.8018 7.08258 69.8693 8.86422C70.6082 6.10333 72.0373 4.11775 75.1628 4.10849C77.5171 4.10164 79.0227 5.33179 79.7694 7.61453C80.4449 5.11448 81.8123 4.08794 84.3511 4.09891C84.3805 4.0996 84.41 4.0989 84.4398 4.09958C87.4769 4.1342 87.652 4.32309 87.4197 7.33316C86.6801 7.15733 85.9453 6.96742 85.2034 6.81455C84.9193 6.75628 84.5697 6.6819 84.335 6.7933C83.9429 6.98112 83.4439 7.25225 83.3267 7.60152C83.2434 7.85071 83.6338 8.40218 83.9498 8.61092C84.507 8.97904 85.1568 9.21932 85.7891 9.45856C87.3552 10.0512 88.1253 11.207 88.1435 12.8385C88.1503 13.4253 88.3549 13.7396 88.8882 13.8222C89.7819 13.961 90.685 14.1434 91.5801 14.1224C91.9232 14.1146 92.393 13.6553 92.5352 13.2947C92.6093 13.1072 92.1579 12.5814 91.8365 12.3946C91.1014 11.9679 90.2693 11.7094 89.5328 11.2848C88.1445 10.4848 87.4176 8.79601 87.7223 7.2663C88.0369 5.68551 89.1935 4.43001 90.8138 4.28125C92.1134 4.16232 93.4444 4.33748 94.7563 4.44853C94.963 4.46635 95.2838 4.82348 95.304 5.04559C95.3732 5.80136 95.3304 6.56711 95.3304 7.35613C94.5027 7.15665 93.7974 6.95921 93.0805 6.82451C92.7412 6.76076 92.3324 6.71448 92.0397 6.8461C91.6792 7.00822 91.2343 7.32216 91.1517 7.65223C91.0859 7.91375 91.4362 8.41764 91.7333 8.60238C92.3002 8.95611 92.9623 9.15693 93.5829 9.42463C95.4585 10.2325 96.3088 11.791 95.9517 13.7598C95.6107 15.6422 94.353 16.7507 92.3039 16.8292C91.2796 16.8686 90.2408 16.7791 89.2213 16.6465C87.8696 16.4724 87.8751 16.4299 87.796 14.9351ZM73.2731 9.35781C74.4863 9.35781 75.648 9.35781 76.8067 9.35781C76.8711 7.53332 76.2125 6.4615 75.0411 6.41866C73.8848 6.37684 73.247 7.40205 73.2731 9.35781Z" fill="black"/>
<path fill-rule="evenodd" clip-rule="evenodd" d="M104.457 49.1706C102.189 49.1706 99.9875 49.1706 97.728 49.1706C97.728 34.1942 97.728 19.2397 97.728 4.21777C99.9762 4.21777 102.191 4.21777 104.457 4.21777C104.457 19.1822 104.457 34.1256 104.457 49.1706Z" fill="black"/>
<path fill-rule="evenodd" clip-rule="evenodd" d="M128.586 21.1351C130.542 21.1351 132.534 21.1351 134.573 21.1351C134.656 22.756 134.737 24.3289 134.832 26.1455C136.56 22.5185 138.935 20.2515 143.132 20.7642C143.132 22.9071 143.132 24.989 143.132 26.9784C142.152 26.9784 141.206 26.8759 140.29 26.9979C137.625 27.352 135.771 29.4154 135.558 32.3738C135.409 34.4557 135.46 36.553 135.451 38.6438C135.437 42.1169 135.447 45.5901 135.447 49.1448C133.166 49.1448 130.945 49.1448 128.586 49.1448C128.586 39.8328 128.586 30.5177 128.586 21.1351Z" fill="black"/>
<path fill-rule="evenodd" clip-rule="evenodd" d="M33.8904 20.7505C33.8904 22.9353 33.8904 24.9901 33.8904 26.9726C32.8931 26.9726 31.8897 26.8495 30.9284 26.9969C28.6343 27.35 27.1658 28.7556 26.5517 30.9677C26.295 31.8935 26.1706 32.8844 26.1624 33.8469C26.1216 38.689 26.1394 43.5314 26.1363 48.3746C26.136 48.6087 26.1363 48.8424 26.1363 49.1423C23.8885 49.1423 21.6914 49.1423 19.3418 49.1423C19.3418 39.817 19.3418 30.5057 19.3418 21.1392C21.2054 21.1392 23.1959 21.1392 25.2696 21.1392C25.3525 22.7848 25.4334 24.3947 25.5239 26.2048C27.1864 22.5627 29.6 20.2618 33.8904 20.7505Z" fill="black"/>
<path fill-rule="evenodd" clip-rule="evenodd" d="M33.688 8.06814C36.102 9.02991 36.9204 10.4459 36.5811 12.9531C36.3087 14.9733 34.7034 16.403 32.4261 16.6518C32.2208 16.6741 32.0132 16.6789 31.8069 16.6795C29.9518 16.6813 28.0964 16.6803 26.1697 16.6803C26.1697 11.1495 26.1697 5.68155 26.1697 0.165926C28.4555 0.165926 30.6982 0.0747568 32.9299 0.196092C34.6349 0.288294 35.992 1.73849 36.2453 3.3988C36.5599 5.45808 35.7668 7.07692 34.0554 7.87555C33.9495 7.92456 33.8484 7.98348 33.688 8.06814ZM29.7211 13.8385C30.9264 13.8412 32.13 14.0612 32.7921 12.841C33.2613 11.9749 33.1756 11.0261 32.5766 10.2522C31.8308 9.28906 30.7499 9.57386 29.7211 9.62116C29.7211 11.0374 29.7211 12.3831 29.7211 13.8385ZM29.7115 6.84966C30.8469 6.89456 31.8966 6.91512 32.4745 5.80939C32.8706 5.05087 32.8405 4.24231 32.2938 3.56537C31.6208 2.73076 30.6869 2.76333 29.7119 2.91345C29.7116 4.22758 29.7115 5.48721 29.7115 6.84966Z" fill="black"/>
<path fill-rule="evenodd" clip-rule="evenodd" d="M59.1088 4.35171C59.1088 8.46032 59.1088 12.5257 59.1088 16.6381C57.9292 16.6381 56.7938 16.6381 55.5803 16.6381C55.5803 15.8748 55.5803 15.1567 55.5803 14.438C54.3561 17.1355 51.9983 16.975 49.7213 16.7971C47.3645 16.6134 47.3707 16.537 47.4924 14.1709C47.5023 13.968 47.516 13.7651 47.5232 13.653C48.5962 13.834 49.6411 14.0297 50.6936 14.1747C50.9698 14.2124 51.3149 14.1696 51.5428 14.0273C51.8081 13.8608 52.1292 13.5553 52.1498 13.2894C52.1707 13.0251 51.9112 12.6152 51.6611 12.4781C50.8886 12.0568 50.0339 11.7857 49.2607 11.3648C46.9907 10.1281 46.6185 6.77531 48.5623 5.10404C49.5863 4.22316 50.8485 4.06618 52.1429 4.10079C54.9613 4.17654 55.0347 4.25811 54.8969 6.98953C54.8907 7.10435 54.8753 7.21848 54.8616 7.35387C54.1388 7.16604 53.4507 6.94703 52.7464 6.81987C52.3533 6.74891 51.8992 6.73866 51.5346 6.87062C51.2293 6.98098 50.8454 7.31377 50.805 7.59311C50.7628 7.88309 51.0103 8.34959 51.2735 8.52268C51.8328 8.89046 52.477 9.13654 53.1001 9.39978C54.4514 9.96909 54.777 10.2509 55.5217 11.6771C55.5217 9.15369 55.5217 6.78969 55.5217 4.35133C56.7355 4.35168 57.8661 4.35171 59.1088 4.35171Z" fill="black"/>
<path fill-rule="evenodd" clip-rule="evenodd" d="M43.4155 4.31641C44.6554 4.31641 45.7675 4.31641 46.969 4.31641C46.969 8.41337 46.969 12.4874 46.969 16.622C45.9766 16.622 44.9584 16.622 43.8679 16.622C43.8065 16.112 43.7449 15.5941 43.6701 14.9717C43.5406 15.1359 43.4405 15.2359 43.3713 15.3539C42.5392 16.7602 41.2071 16.9788 39.7595 16.827C38.4785 16.6923 37.6906 15.894 37.2996 14.7101C37.1351 14.2114 36.9908 13.6778 36.9853 13.1588C36.9551 10.2403 36.9709 7.32101 36.9709 4.33938C38.1392 4.33938 39.2715 4.33938 40.5138 4.33938C40.5138 6.11794 40.5131 7.87731 40.5138 9.63599C40.5145 10.4922 40.4795 11.3504 40.5296 12.2036C40.5937 13.298 41.0676 13.8313 41.8833 13.8467C42.6907 13.8621 43.2795 13.3289 43.3192 12.2742C43.4056 9.98184 43.3898 7.68537 43.4145 5.39062C43.4186 5.04443 43.4155 4.69858 43.4155 4.31641Z" fill="black"/>
<path fill-rule="evenodd" clip-rule="evenodd" d="M55.5969 3.27554C55.5969 2.18147 55.5969 1.15459 55.5969 0.0546875C56.746 0.0546875 57.9006 0.0546875 59.1049 0.0546875C59.1049 1.12031 59.1049 2.17016 59.1049 3.27554C57.9633 3.27554 56.8303 3.27554 55.5969 3.27554Z" fill="black"/>
</svg>
