<?xml version="1.0" encoding="utf-8"?>
<!-- Generator: Adobe Illustrator 24.3.0, SVG Export Plug-In . SVG Version: 6.00 Build 0)  -->
<svg version="1.1" id="Layer_1" xmlns="http://www.w3.org/2000/svg" xmlns:xlink="http://www.w3.org/1999/xlink" x="0px" y="0px"
	 viewBox="0 0 180 180" style="enable-background:new 0 0 180 180;" xml:space="preserve">
<style type="text/css">
	.st0{fill:#4B1790;}
	.st1{fill:#981CC9;}
</style>
<g>
	<path class="st0" d="M143.6,59.2c0.1-1.1,0.1-2.3,0.1-3.4c0-22.2-17.9-40.2-40-40.2c-12.8,0-24.7,6.1-32.2,16.4c-2.5-0.7-5-1-7.6-1
		c-16,0-29.1,13-29.4,29c-8.5,4.1-14.1,12.9-14.1,22.5c0,13,10.1,23.9,23,25l0.1,0c0.3,0,0.6,0.1,1,0.1h10.7v-6.1H44.6
		c-0.1,0-0.1,0-0.2,0c-0.1,0-0.2,0-0.3,0c0,0-0.1,0-0.1,0c-9.8-0.7-17.5-9-17.5-18.9c0-7.8,4.9-15,12.2-17.7c1.2-0.5,2-1.7,1.9-3
		c0-0.2,0-0.3,0-0.5c0-0.3,0-0.5,0-0.8C40.6,47.5,51.1,37,64,37c2.6,0,5.2,0.5,7.8,1.4c1.3,0.5,2.8,0,3.5-1.2
		c6.3-9.7,16.9-15.6,28.5-15.6c18.7,0,33.9,15.3,33.9,34.1c0,1.7-0.1,3.4-0.4,5.1c-0.2,1.5,0.7,3,2.2,3.4c8.2,2.2,14,9.8,14,18.3
		c0,10.5-8.5,19-18.9,19c0,0-0.1,0-0.1,0c-0.1,0-0.3,0-0.4,0c-0.1,0-0.1,0-0.2,0c-0.1,0-0.2,0-0.3,0h-5.5v6.1h5.6c0.1,0,0.3,0,0.4,0
		c0.2,0,0.3,0,0.5,0c13.7,0,24.9-11.2,24.9-25.1C159.5,72.1,153.1,62.8,143.6,59.2z"/>
	<path class="st1" d="M93.5,149.8c0-0.1,0-0.2,0-0.3V91.7c0-1.1-0.9-2-2-2c-1.1,0-2,0.9-2,2v57.8c0,0.1,0,0.2,0,0.3
		c-3.1,0.9-5.4,3.8-5.4,7.2c0,4.1,3.3,7.5,7.4,7.5c4.1,0,7.4-3.3,7.4-7.5C98.9,153.6,96.6,150.7,93.5,149.8z"/>
	<path class="st1" d="M125.6,142.3c0-0.1,0-0.2,0-0.3v-15.5c0-1.1-0.9-2-2-2H107V91.7c0-1.1-0.9-2-2-2c-1.1,0-2,0.9-2,2v34.8
		c0,1.1,0.9,2,2,2h16.6v13.5c0,0.1,0,0.2,0,0.3c-3.1,0.9-5.4,3.8-5.4,7.2c0,4.1,3.3,7.5,7.4,7.5c4.1,0,7.4-3.3,7.4-7.5
		C131.1,146.1,128.8,143.2,125.6,142.3z"/>
	<path class="st1" d="M143.4,113.7c-1.8,0-3.5,0.7-4.8,1.7c-0.2-0.2-0.4-0.3-0.6-0.4l-19.7-7.4V91.7c0-1.1-0.9-2-2-2
		c-1.1,0-2,0.9-2,2V109c0,0.8,0.5,1.6,1.3,1.9l20.8,7.9c-0.3,0.8-0.4,1.6-0.4,2.4c0,4.1,3.3,7.5,7.4,7.5c4.1,0,7.4-3.3,7.4-7.5
		C150.8,117,147.5,113.7,143.4,113.7z"/>
	<path class="st1" d="M78,89.7c-1.1,0-2,0.9-2,2v32.8H59.4c-1.1,0-2,0.9-2,2v15.5c0,0.1,0,0.2,0,0.3c-3.1,0.9-5.4,3.8-5.4,7.2
		c0,4.1,3.3,7.5,7.4,7.5c4.1,0,7.4-3.3,7.4-7.5c0-3.4-2.3-6.3-5.4-7.2c0-0.1,0-0.2,0-0.3v-13.5H78c1.1,0,2-0.9,2-2V91.7
		C80,90.6,79.1,89.7,78,89.7z"/>
	<path class="st1" d="M67.5,110.8c0.8-0.3,1.3-1,1.3-1.9V91.7c0-1.1-0.9-2-2-2c-1.1,0-2,0.9-2,2v15.8L45,115
		c-0.3,0.1-0.5,0.3-0.7,0.5c-1.3-1.1-3-1.8-4.9-1.8c-4.1,0-7.4,3.3-7.4,7.5c0,4.1,3.3,7.5,7.4,7.5s7.4-3.3,7.4-7.5
		c0-0.8-0.1-1.6-0.4-2.4L67.5,110.8z"/>
</g>
</svg>
