<svg width="168" height="56" viewBox="0 0 168 56" fill="none" xmlns="http://www.w3.org/2000/svg">
<path d="M58.1596 41.5553C56.3087 41.5553 54.6002 41.1139 53.0341 40.2312C51.4965 39.32 50.2721 38.0956 49.3609 36.558C48.4497 35.0203 47.9941 33.3546 47.9941 31.5607V25.9654C47.9941 24.1715 48.4497 22.5058 49.3609 20.9681C50.2721 19.4305 51.4965 18.2203 53.0341 17.3376C54.6002 16.4264 56.3087 15.9708 58.1596 15.9708C60.0104 15.9708 61.7047 16.4264 63.2423 17.3376C64.8084 18.2203 66.047 19.4305 66.9582 20.9681C67.8694 22.5058 68.325 24.1715 68.325 25.9654V31.5607C68.325 33.3546 67.8694 35.0203 66.9582 36.558C66.047 38.0956 64.8084 39.32 63.2423 40.2312C61.7047 41.1139 60.0104 41.5553 58.1596 41.5553ZM58.1596 36.6007C59.5548 36.6007 60.7365 36.1166 61.7047 35.1485C62.7013 34.1519 63.1996 32.9559 63.1996 31.5607V25.9654C63.1996 24.5702 62.7013 23.3885 61.7047 22.4203C60.7365 21.4237 59.5548 20.9254 58.1596 20.9254C56.7643 20.9254 55.5684 21.4237 54.5718 22.4203C53.6036 23.3885 53.1196 24.5702 53.1196 25.9654V31.5607C53.1196 32.9559 53.6036 34.1519 54.5718 35.1485C55.5684 36.1166 56.7643 36.6007 58.1596 36.6007ZM75.0648 41C74.8085 41 74.595 40.9146 74.4241 40.7437C74.2533 40.5729 74.1678 40.3593 74.1678 40.1031V17.423C74.1678 17.1668 74.2533 16.9532 74.4241 16.7824C74.595 16.6115 74.8085 16.5261 75.0648 16.5261H78.3963C78.6526 16.5261 78.8661 16.6115 79.037 16.7824C79.2078 16.9532 79.2933 17.1668 79.2933 17.423V19.4305C80.0906 18.3485 81.0302 17.5085 82.1123 16.9105C83.2228 16.2841 84.4329 15.9708 85.7428 15.9708C87.3658 15.9708 88.818 16.3553 90.0994 17.1241C91.4092 17.8929 92.4343 18.9607 93.1746 20.3275C93.915 21.6942 94.2851 23.2319 94.2851 24.9403V40.1031C94.2851 40.3593 94.1997 40.5729 94.0289 40.7437C93.858 40.9146 93.6445 41 93.3882 41H90.0567C89.8004 41 89.5868 40.9146 89.416 40.7437C89.2451 40.5729 89.1597 40.3593 89.1597 40.1031V25.581C89.1597 24.0719 88.7753 22.9186 88.0065 22.1214C87.2377 21.2956 86.1556 20.8827 84.7604 20.8827C83.0804 20.8827 81.7421 21.438 80.7455 22.5485C79.7773 23.6305 79.2933 25.1254 79.2933 27.0332V40.1031C79.2933 40.3593 79.2078 40.5729 79.037 40.7437C78.8661 40.9146 78.6526 41 78.3963 41H75.0648ZM110.006 41C108.155 41 106.447 40.5444 104.881 39.6332C103.343 38.722 102.119 37.4834 101.207 35.9173C100.296 34.3512 99.8407 32.6427 99.8407 30.7919V26.179C99.8407 24.3281 100.296 22.6197 101.207 21.0536C102.119 19.4875 103.343 18.2488 104.881 17.3376C106.447 16.4264 108.155 15.9708 110.006 15.9708C111.857 15.9708 113.551 16.4264 115.089 17.3376C116.655 18.2488 117.894 19.4875 118.805 21.0536C119.716 22.6197 120.172 24.3281 120.172 26.179V29.0407C120.172 29.5532 119.986 29.9946 119.616 30.3647C119.275 30.7064 118.847 30.8773 118.335 30.8773H104.966V31.0908C104.966 32.4861 105.45 33.682 106.418 34.6786C107.415 35.6468 108.611 36.1308 110.006 36.1308H116.797C117.054 36.1308 117.267 36.2163 117.438 36.3871C117.609 36.558 117.694 36.7715 117.694 37.0278V40.1031C117.694 40.3593 117.609 40.5729 117.438 40.7437C117.267 40.9146 117.054 41 116.797 41H110.006ZM115.046 26.2644V25.88C115.046 24.4847 114.548 23.303 113.551 22.3349C112.583 21.3383 111.401 20.84 110.006 20.84C108.611 20.84 107.415 21.3383 106.418 22.3349C105.45 23.303 104.966 24.4847 104.966 25.88V26.2644H115.046ZM133.325 41.5553C131.303 41.5553 129.396 41.0712 127.602 40.1031C125.808 39.1349 124.37 37.8108 123.288 36.1308C123.174 35.9885 123.117 35.7892 123.117 35.5329C123.117 35.1342 123.274 34.821 123.587 34.5932L125.936 32.842C126.135 32.6997 126.32 32.6285 126.491 32.6285C126.804 32.6285 127.075 32.7851 127.303 33.0983C128.072 34.2088 128.997 35.0915 130.079 35.7464C131.161 36.3729 132.243 36.6861 133.325 36.6861C134.35 36.6861 135.29 36.4298 136.144 35.9173C137.027 35.4047 137.724 34.7071 138.237 33.8244C138.75 32.9132 139.006 31.9308 139.006 30.8773C139.006 29.3966 138.493 28.1153 137.468 27.0332C136.472 25.9227 135.261 25.3105 133.838 25.1966L132.642 26.8624C132.471 27.1186 132.229 27.2468 131.916 27.2468C131.745 27.2468 131.56 27.1756 131.36 27.0332L128.926 25.282C128.67 25.1112 128.541 24.8692 128.541 24.5559C128.541 24.3566 128.598 24.1858 128.712 24.0434L134.905 15.3302H126.406C126.15 15.3302 125.936 15.2447 125.765 15.0739C125.594 14.903 125.509 14.6895 125.509 14.4332V11.358C125.509 11.1017 125.594 10.8881 125.765 10.7173C125.936 10.5464 126.15 10.461 126.406 10.461H139.006C139.86 10.461 140.558 10.7315 141.099 11.2725C141.64 11.8136 141.91 12.4542 141.91 13.1946C141.91 13.8495 141.711 14.4332 141.312 14.9458L136.913 20.9681C139.02 21.6515 140.743 22.9044 142.081 24.7268C143.419 26.5207 144.088 28.5708 144.088 30.8773C144.088 32.7851 143.604 34.5647 142.636 36.2163C141.668 37.8393 140.358 39.1349 138.707 40.1031C137.055 41.0712 135.261 41.5553 133.325 41.5553ZM151.248 41C150.963 41 150.735 40.9146 150.564 40.7437C150.394 40.5729 150.308 40.3736 150.308 40.1458C150.308 40.0603 150.337 39.9322 150.394 39.7614L160.004 15.4156H148.215C147.959 15.4156 147.745 15.3302 147.575 15.1593C147.404 14.9885 147.318 14.7749 147.318 14.5186V11.358C147.318 11.1017 147.404 10.8881 147.575 10.7173C147.745 10.5464 147.959 10.461 148.215 10.461H163.506C164.019 10.461 164.446 10.6461 164.787 11.0163C165.158 11.358 165.343 11.7851 165.343 12.2976V15.2447L155.604 40.1458C155.49 40.402 155.32 40.6156 155.092 40.7864C154.864 40.9288 154.608 41 154.323 41H151.248Z" fill="#2B2B2B"/>
<path fill-rule="evenodd" clip-rule="evenodd" d="M9.9661 10.2822H19.9322V20.2483H29.8983V30.2144V40.1805H19.9322V30.2144H9.9661V20.2483H0V10.2822H9.9661ZM9.9661 31.3219H0V41.288H9.9661V31.3219Z" fill="url(#paint0_linear_103_2115)"/>
<defs>
<linearGradient id="paint0_linear_103_2115" x1="1.07747" y1="0.240532" x2="36.3663" y2="48.4476" gradientUnits="userSpaceOnUse">
<stop offset="0.2687" stop-color="#FF00FF"/>
<stop offset="0.531" stop-color="#813997"/>
<stop offset="0.8716" stop-color="#47287D"/>
</linearGradient>
</defs>
</svg>
