<?xml version="1.0" encoding="utf-8"?>
<!-- Generator: Adobe Illustrator 24.3.0, SVG Export Plug-In . SVG Version: 6.00 Build 0)  -->
<svg version="1.1" id="Layer_1" xmlns="http://www.w3.org/2000/svg" xmlns:xlink="http://www.w3.org/1999/xlink" x="0px" y="0px"
	 viewBox="0 0 180 180" style="enable-background:new 0 0 180 180;" xml:space="preserve">
<style type="text/css">
	.st0{fill:#941CD5;}
	.st1{fill:#571387;}
</style>
<g>
	<path class="st0" d="M56.4,144.1c-2.7,0-4.9,2.2-4.9,4.9c0,2.7,2.2,4.9,4.9,4.9s4.9-2.2,4.9-4.9C61.4,146.3,59.2,144.1,56.4,144.1z
		 M56.4,152.5c-1.9,0-3.5-1.6-3.5-3.5s1.6-3.5,3.5-3.5c1.9,0,3.5,1.6,3.5,3.5S58.4,152.5,56.4,152.5z"/>
	<path class="st0" d="M56.4,154.8c-3.1,0-5.7-2.6-5.7-5.7c0-3.1,2.6-5.7,5.7-5.7c3.1,0,5.7,2.5,5.7,5.7
		C62.1,152.2,59.6,154.8,56.4,154.8z M56.4,146.3c-1.5,0-2.7,1.2-2.7,2.7c0,1.5,1.2,2.7,2.7,2.7c1.5,0,2.7-1.2,2.7-2.7
		C59.2,147.6,58,146.3,56.4,146.3z"/>
	<path class="st0" d="M74.2,151.3c-2.3,0-4.1,1.8-4.1,4.1c0,2.3,1.8,4.1,4.1,4.1c2.3,0,4.1-1.8,4.1-4.1
		C78.3,153.1,76.5,151.3,74.2,151.3z M74.2,158c-1.5,0-2.6-1.2-2.6-2.6c0-1.5,1.2-2.6,2.6-2.6s2.6,1.2,2.6,2.6
		C76.8,156.8,75.7,158,74.2,158z"/>
	<path class="st0" d="M74.2,160.2c-2.7,0-4.9-2.2-4.9-4.9c0-2.7,2.2-4.9,4.9-4.9s4.9,2.2,4.9,4.9C79.1,158.1,76.9,160.2,74.2,160.2z
		 M74.2,153.5c-1,0-1.9,0.8-1.9,1.9c0,1,0.8,1.9,1.9,1.9s1.9-0.8,1.9-1.9C76.1,154.3,75.3,153.5,74.2,153.5z M74.2,152
		c1.9,0,3.4,1.5,3.4,3.4C77.6,153.5,76.1,152,74.2,152z"/>
	<path class="st0" d="M136.3,36.3c-2.3,0-4.1,1.8-4.1,4.1c0,2.3,1.8,4.1,4.1,4.1c2.3,0,4.1-1.8,4.1-4.1
		C140.5,38.1,138.6,36.3,136.3,36.3z M136.3,43c-1.5,0-2.6-1.2-2.6-2.6c0-1.5,1.2-2.6,2.6-2.6s2.6,1.2,2.6,2.6
		C139,41.9,137.8,43,136.3,43z"/>
	<path class="st0" d="M136.3,45.3c-2.7,0-4.9-2.2-4.9-4.9c0-2.7,2.2-4.9,4.9-4.9s4.9,2.2,4.9,4.9C141.2,43.1,139,45.3,136.3,45.3z
		 M136.3,38.5c-1,0-1.9,0.8-1.9,1.9c0,1,0.8,1.9,1.9,1.9c1.1,0,1.9-0.9,1.9-1.9C138.2,39.4,137.4,38.5,136.3,38.5z"/>
	<path class="st0" d="M119.1,152.1c-1.8,0.8-3.6,1.6-5.4,2.2c-0.4,0.1-0.6,0.6-0.5,0.9c0.1,0.3,0.3,0.4,0.6,0.5c0.1,0,0.3,0,0.4,0
		c1.9-0.7,3.7-1.4,5.5-2.3c0.4-0.2,0.5-0.6,0.4-1C119.9,152.1,119.5,151.9,119.1,152.1z"/>
	<path class="st0" d="M114,157.2l-0.4,0c-0.8-0.1-1.4-0.7-1.7-1.4c-0.2-0.6-0.2-1.2,0.1-1.7c0.3-0.5,0.7-0.9,1.3-1.1
		c1.7-0.6,3.5-1.3,5.3-2.2c1.1-0.5,2.5,0,3,1.1c0.2,0.5,0.3,1.1,0.1,1.7c-0.2,0.6-0.6,1-1.1,1.3c-1.9,0.9-3.8,1.7-5.7,2.3L114,157.2
		z"/>
	<path class="st0" d="M108.1,156c-1.9,0.5-3.8,0.8-5.7,1.1c-0.4,0.1-0.7,0.4-0.6,0.8c0,0.3,0.3,0.6,0.6,0.6c0.1,0,0.2,0,0.2,0
		c2-0.3,3.9-0.7,5.9-1.1c0.4-0.1,0.6-0.5,0.5-0.9C108.9,156.1,108.5,155.9,108.1,156z"/>
	<path class="st0" d="M102.5,160l-0.4,0c-0.9-0.2-1.6-0.9-1.8-1.9c-0.2-1.2,0.7-2.3,1.9-2.5c1.9-0.3,3.8-0.6,5.6-1.1l0.5-0.1
		c1,0,1.9,0.7,2.2,1.7c0.3,1.2-0.4,2.4-1.6,2.7c-1.9,0.5-4,0.9-6,1.2L102.5,160z"/>
	<path class="st0" d="M96.6,157.6c-1.5,0.1-3.1,0.1-4.6,0c-0.4,0-0.8,0.3-0.8,0.7c0,0.4,0.2,0.7,0.6,0.8c0,0,0.1,0,0.1,0
		c1.6,0.1,3.2,0.1,4.8,0c0.4,0,0.7-0.4,0.7-0.8C97.3,157.9,97,157.6,96.6,157.6z"/>
	<path class="st0" d="M94.4,160.6c-0.9,0-1.7,0-2.6-0.1l-0.3,0c-1.1-0.2-1.9-1.2-1.8-2.3c0.1-1.2,1-2.1,2.2-2.1
		c1.7,0.1,3.1,0.1,4.6,0c0,0,0,0,0,0c1.3,0,2.2,0.9,2.3,2.1c0,1.2-0.9,2.3-2.1,2.3C95.9,160.6,95.2,160.6,94.4,160.6z"/>
	<path class="st0" d="M129.1,146.1c-1.6,1.2-3.2,2.2-4.9,3.2c-0.4,0.2-0.5,0.7-0.3,1c0.1,0.2,0.3,0.3,0.5,0.3c0.2,0,0.4,0,0.5-0.1
		c1.7-1,3.4-2.1,5-3.3c0.3-0.2,0.4-0.7,0.2-1C129.9,146,129.5,145.9,129.1,146.1z"/>
	<path class="st0" d="M124.6,152.2l-0.4,0c-0.6-0.1-1.2-0.5-1.5-1c-0.3-0.5-0.4-1.1-0.3-1.7c0.1-0.6,0.5-1.1,1-1.4
		c1.6-1,3.2-2,4.7-3.1c0.9-0.7,2.4-0.5,3.1,0.5c0.7,1,0.5,2.4-0.5,3.1c-1.6,1.2-3.4,2.4-5.1,3.4C125.4,152.1,125,152.2,124.6,152.2z
		"/>
	<path class="st0" d="M47.8,40.3c1.3-1.4,2.8-2.7,4.3-4c0.1-0.1,0.2-0.2,0.2-0.3c0.1-0.2,0.1-0.5-0.1-0.8c-0.3-0.3-0.7-0.3-1-0.1
		c-1.5,1.3-3,2.7-4.4,4.1c-0.3,0.3-0.3,0.8,0,1C47.1,40.6,47.6,40.6,47.8,40.3z"/>
	<path class="st0" d="M47.3,42c-0.6,0-1.1-0.2-1.5-0.6c-0.9-0.8-0.9-2.3-0.1-3.1c1.4-1.5,2.9-2.9,4.5-4.2c0.9-0.8,2.4-0.6,3.1,0.3
		c0.5,0.6,0.7,1.5,0.4,2.2c-0.2,0.4-0.4,0.7-0.7,0.9c-1.4,1.2-2.8,2.5-4.1,3.9C48.5,41.7,47.9,42,47.3,42z"/>
	<path class="st0" d="M56.7,32.7c1.6-1.1,3.3-2.1,5-3.1c0.2-0.1,0.3-0.2,0.3-0.4c0.1-0.2,0.1-0.4,0-0.6c-0.2-0.4-0.6-0.5-1-0.3
		c-1.7,1-3.5,2-5.1,3.1c-0.3,0.2-0.4,0.7-0.2,1C55.9,32.9,56.4,33,56.7,32.7z"/>
	<path class="st0" d="M56.3,34.3c-0.7,0-1.4-0.4-1.8-0.9c-0.7-1-0.4-2.4,0.6-3.1c1.6-1.1,3.4-2.2,5.2-3.2c1.1-0.6,2.5-0.2,3,0.9
		c0.3,0.6,0.4,1.3,0.1,1.9c-0.2,0.5-0.5,0.9-1,1.1c-1.6,0.9-3.3,1.9-4.8,3C57.2,34.2,56.8,34.3,56.3,34.3z"/>
	<path class="st0" d="M118.7,29c0.1-0.3,0-0.7-0.3-0.9c-1.8-0.9-3.6-1.8-5.4-2.6c-0.4-0.2-0.8,0-1,0.4l0,0c-0.1,0.4,0,0.8,0.4,1
		c1.8,0.7,3.6,1.6,5.3,2.5C118,29.6,118.5,29.5,118.7,29C118.7,29.1,118.7,29.1,118.7,29z"/>
	<path class="st0" d="M118,31c-0.4,0-0.7-0.1-1-0.3c-1.7-0.9-3.4-1.7-5.1-2.4c-1.1-0.5-1.7-1.7-1.2-2.9l0.2-0.4c0.4-0.6,1.1-1,1.9-1
		h0.3l0.6,0.2c1.8,0.7,3.7,1.6,5.5,2.6c1,0.6,1.4,1.7,1,2.8l-0.2,0.4C119.6,30.5,118.9,31,118,31z"/>
	<path class="st0" d="M83.8,22.7c0.3,0,0.5-0.2,0.6-0.5c0-0.1,0.1-0.2,0.1-0.3c0-0.4-0.4-0.7-0.8-0.7c-2,0.2-4,0.5-5.9,0.9
		c-0.4,0.1-0.7,0.5-0.6,0.9c0.1,0.4,0.5,0.6,0.9,0.6C80,23.2,81.9,22.9,83.8,22.7z"/>
	<path class="st0" d="M77.9,25.1c-1,0-2-0.7-2.2-1.7c-0.1-0.6,0-1.2,0.3-1.7c0.3-0.5,0.8-0.8,1.4-1c2-0.4,4-0.7,6-0.9
		c1.3,0,2.3,0.8,2.4,2c0,0.4,0,0.8-0.2,1.1c-0.3,0.8-1,1.3-1.9,1.4c-1.9,0.2-3.7,0.5-5.6,0.9L77.9,25.1z"/>
	<path class="st0" d="M101.3,23.5c1.9,0.4,3.8,0.9,5.7,1.4c0.4,0.1,0.8-0.1,0.9-0.4c0,0,0,0,0-0.1c0.1-0.4-0.1-0.8-0.5-0.9
		c-1.9-0.6-3.9-1.1-5.8-1.5c-0.4-0.1-0.8,0.2-0.9,0.6C100.6,23,100.9,23.4,101.3,23.5z"/>
	<path class="st0" d="M107.1,26.4l-0.6-0.1c-1.9-0.6-3.7-1-5.5-1.4c-1.2-0.2-2-1.4-1.8-2.6c0.2-1.1,1.1-1.8,2.2-1.8l0.4,0
		c2.1,0.4,4.1,0.9,6,1.5c0.6,0.2,1,0.6,1.3,1.1c0.2,0.4,0.3,0.9,0.2,1.4l-0.1,0.4C108.9,25.9,108.1,26.4,107.1,26.4z"/>
	<path class="st0" d="M95.5,22.6c0.3,0,0.6-0.2,0.8-0.5c0-0.1,0-0.1,0-0.2c0-0.4-0.3-0.8-0.7-0.8c-2-0.2-4-0.3-6-0.3
		c-0.4,0-0.7,0.3-0.7,0.7c0,0.4,0.3,0.7,0.7,0.7C91.6,22.4,93.6,22.5,95.5,22.6z"/>
	<path class="st0" d="M95.6,24.1l-0.2,0c-1.8-0.2-3.5-0.3-5.3-0.3l-0.4,0c-1.2,0-2.2-1-2.2-2.2c0-1.2,1-2.2,2.2-2.2c0,0,0,0,0,0
		c2.2,0,4.2,0.1,6.1,0.3c0.6,0.1,1.1,0.3,1.5,0.8c0.4,0.5,0.6,1,0.5,1.6l-0.1,0.5C97.3,23.6,96.5,24.1,95.6,24.1z"/>
	<path class="st0" d="M72.4,25.1c0.2-0.1,0.4-0.2,0.5-0.4c0.1-0.2,0.1-0.3,0-0.5c-0.1-0.4-0.5-0.6-0.9-0.5c-1.9,0.6-3.8,1.3-5.6,2.1
		c-0.4,0.2-0.6,0.6-0.4,1c0.2,0.4,0.6,0.6,1,0.4C68.7,26.3,70.6,25.7,72.4,25.1z"/>
	<path class="st0" d="M66.7,28.6c-0.9,0-1.7-0.5-2-1.3c-0.5-1.1,0-2.4,1.2-2.9c1.9-0.8,3.8-1.5,5.8-2.1l0.7-0.1c1,0,1.8,0.6,2.1,1.6
		c0.2,0.5,0.1,1-0.1,1.5c-0.2,0.6-0.8,1.1-1.4,1.3c-1.8,0.6-3.6,1.2-5.3,2l-0.3,0.1L66.7,28.6z"/>
	<path class="st0" d="M122.7,32.4c0.4,0.3,0.9,0.6,1.3,0.9c0.3,0.2,0.8,0.2,1-0.2c0-0.1,0.1-0.1,0.1-0.2c0.1-0.3,0-0.7-0.3-0.9
		c-0.4-0.3-0.9-0.6-1.3-0.9c-0.3-0.2-0.8-0.1-1,0.2C122.3,31.7,122.3,32.2,122.7,32.4z"/>
	<path class="st0" d="M124.4,34.9c-0.5,0-0.9-0.1-1.3-0.4c-0.4-0.3-0.8-0.6-1.3-0.9c-1-0.7-1.3-2-0.6-3.1c0.7-1,2.1-1.3,3.1-0.6
		c0.5,0.3,0.9,0.6,1.4,0.9c0.8,0.6,1.2,1.7,0.8,2.6l-0.2,0.4C125.8,34.6,125.1,34.9,124.4,34.9z"/>
	<path class="st0" d="M22.9,85.1C23,85.1,23,85.1,22.9,85.1c0.5,0,0.8-0.3,0.8-0.6c0.2-1.9,0.5-3.9,0.9-5.8c0.1-0.4-0.2-0.8-0.6-0.9
		c-0.4-0.1-0.8,0.2-0.9,0.6c-0.4,1.9-0.8,3.9-1,5.9C22.2,84.7,22.5,85.1,22.9,85.1z"/>
	<path class="st0" d="M23,86.6l-0.4,0c-0.4,0-1-0.3-1.4-0.8c-0.4-0.5-0.5-1.1-0.5-1.7c0.2-2,0.6-4,1-6.1c0.2-1,1.1-1.7,2.2-1.7
		l0.5,0.1c0.6,0.1,1.1,0.5,1.4,1c0.3,0.5,0.4,1.1,0.3,1.7c-0.4,1.9-0.7,3.7-0.9,5.6C25.1,85.7,24.1,86.6,23,86.6z"/>
	<path class="st0" d="M24.7,73.9C24.7,73.9,24.8,73.9,24.7,73.9c0.5,0.1,0.8-0.2,0.9-0.5c0.5-1.9,1.1-3.8,1.7-5.6
		c0.1-0.4-0.1-0.8-0.4-0.9c-0.4-0.1-0.8,0.1-0.9,0.4c-0.7,1.9-1.3,3.8-1.8,5.7C24.1,73.4,24.3,73.8,24.7,73.9z"/>
	<path class="st0" d="M24.9,75.4l-0.6-0.1c-0.5-0.1-1-0.5-1.3-1c-0.3-0.5-0.4-1.1-0.2-1.7c0.5-1.9,1.1-3.9,1.8-5.8
		c0.3-0.9,1.1-1.4,2.1-1.4l0.8,0.1c0.6,0.2,1,0.6,1.2,1.2c0.2,0.5,0.3,1.1,0.1,1.7c-0.7,1.8-1.2,3.6-1.7,5.4
		C26.8,74.7,25.9,75.4,24.9,75.4z"/>
	<path class="st0" d="M24.4,101.9c-0.1-0.4-0.5-0.7-0.9-0.6c-0.4,0.1-0.7,0.5-0.6,0.9c0.4,2,0.8,3.9,1.4,5.8
		c0.1,0.3,0.4,0.5,0.7,0.5c0.1,0,0.1,0,0.2,0c0.4-0.1,0.6-0.5,0.5-0.9C25.2,105.7,24.7,103.8,24.4,101.9z"/>
	<path class="st0" d="M25,110c-1,0-1.9-0.7-2.1-1.6c-0.6-1.9-1-3.9-1.4-5.9c-0.2-1.2,0.6-2.4,1.7-2.6l0.4,0c1.1,0,2,0.8,2.2,1.8
		c0.3,1.8,0.8,3.7,1.3,5.5c0.3,1.2-0.3,2.4-1.5,2.8L25,110z"/>
	<path class="st0" d="M27.2,113.2c-0.1-0.4-0.5-0.6-0.9-0.5c-0.4,0.1-0.6,0.5-0.5,0.9c0.5,1.9,1.2,3.8,1.9,5.7
		c0.1,0.3,0.4,0.5,0.7,0.5c0.1,0,0.1,0,0.2,0c0.4-0.1,0.6-0.6,0.4-1C28.3,117,27.7,115.1,27.2,113.2z"/>
	<path class="st0" d="M28.3,121.2c-0.9,0-1.8-0.6-2.1-1.4c-0.7-1.9-1.4-3.8-1.9-5.8c-0.3-1.2,0.4-2.4,1.5-2.7l0.6-0.1
		c1,0,1.9,0.7,2.2,1.6c0.5,1.8,1.1,3.6,1.8,5.4c0.4,1.2-0.1,2.4-1.3,2.9L28.3,121.2z"/>
	<path class="st0" d="M23.6,96.1c-0.1-1.7-0.2-3.4-0.2-5c0-0.3,0-0.5,0-0.8c0-0.4-0.3-0.7-0.7-0.8c-0.4,0-0.7,0.3-0.7,0.7
		c0,0.3,0,0.6,0,0.8c0,1.7,0.1,3.5,0.2,5.2c0,0.4,0.4,0.7,0.7,0.7c0,0,0,0,0.1,0C23.3,96.9,23.6,96.5,23.6,96.1z"/>
	<path class="st0" d="M22.9,98.4c-1.2,0-2.1-0.9-2.2-2c-0.1-1.7-0.2-3.5-0.2-5.3l0-0.9c0-1.2,1-2.2,2.2-2.2c0.6,0,1.2,0.2,1.6,0.7
		c0.4,0.4,0.6,1,0.6,1.6l0,0.8c0,1.7,0.1,3.3,0.2,4.9c0.1,0.6-0.1,1.2-0.5,1.6c-0.4,0.5-0.9,0.7-1.5,0.8L22.9,98.4z"/>
	<path class="st0" d="M155.6,103c0.1-0.4,0.5-0.7,0.9-0.6c0.4,0.1,0.7,0.5,0.6,0.9c-0.4,2-0.8,3.9-1.4,5.8c-0.1,0.3-0.4,0.5-0.7,0.5
		c-0.1,0-0.1,0-0.2,0c-0.4-0.1-0.6-0.5-0.5-0.9C154.8,106.9,155.3,105,155.6,103z"/>
	<path class="st0" d="M155,111.2l-0.6-0.1c-1.2-0.3-1.9-1.6-1.5-2.8c0.6-1.9,1-3.7,1.3-5.5c0.2-1.1,1.1-1.8,2.2-1.8l0.4,0
		c1.2,0.3,2,1.4,1.8,2.6c-0.4,2-0.9,4.1-1.4,6C156.8,110.5,156,111.2,155,111.2z"/>
	<path class="st0" d="M152.8,114.4c0.1-0.4,0.5-0.6,0.9-0.5c0.4,0.1,0.6,0.5,0.5,0.9c-0.5,1.9-1.2,3.8-1.9,5.7
		c-0.1,0.3-0.4,0.5-0.7,0.5c-0.1,0-0.1,0-0.2,0c-0.4-0.1-0.6-0.6-0.4-1C151.7,118.1,152.3,116.2,152.8,114.4z"/>
	<path class="st0" d="M151.7,122.4l-0.8-0.1c-1.1-0.4-1.7-1.7-1.3-2.9c0.7-1.8,1.3-3.7,1.8-5.4c0.3-1,1.1-1.6,2.2-1.6l0.6,0.1
		c1.2,0.4,1.9,1.5,1.6,2.7c-0.6,2-1.2,4-1.9,5.8C153.4,121.8,152.6,122.4,151.7,122.4z"/>
	<path class="st0" d="M156.4,97.3c0.1-1.7,0.2-3.4,0.2-5c0-0.3,0-0.5,0-0.8c0-0.4,0.3-0.7,0.7-0.8c0.4,0,0.7,0.3,0.7,0.7
		c0,0.3,0,0.6,0,0.8c0,1.7-0.1,3.5-0.2,5.2c0,0.4-0.4,0.7-0.7,0.7c0,0,0,0-0.1,0C156.7,98,156.4,97.7,156.4,97.3z"/>
	<path class="st0" d="M157.1,99.6l-0.2,0c-0.5,0-1.1-0.3-1.5-0.8c-0.4-0.5-0.6-1-0.5-1.6c0.1-1.6,0.2-3.2,0.2-4.9l0-0.8
		c0-0.6,0.2-1.2,0.6-1.6c0.4-0.4,1-0.7,1.6-0.7c1.3,0,2.2,1,2.3,2.2l0,0.8c0,1.8-0.1,3.6-0.2,5.3C159.3,98.7,158.3,99.6,157.1,99.6z
		"/>
	<path class="st1" d="M39.2,139.1h105.1c0.7,0,1.2-0.5,1.2-1.2V75.9l3-3c0.2-0.1,0.4-0.1,0.6-0.3c0.2-0.2,0.3-0.4,0.3-0.6l3-3
		c0.4-0.4,0.8-1,0.9-1.5c0.2-0.7,0-1.4-0.5-1.9l-6-6c-0.3-0.3-0.8-0.5-1.3-0.5V51c0-0.7-0.5-1.2-1.2-1.2H39.2
		c-0.7,0-1.2,0.5-1.2,1.2v86.9C38,138.6,38.5,139.1,39.2,139.1z M100.1,136.7v-5.6c0-0.7-0.6-1.2-1.2-1.2c-0.7,0-1.2,0.5-1.2,1.2
		v5.6H84.5v-6.3c13.5-6.8,13.7-6.9,13.8-7h0c0,0,0.1-0.1,23.5-23.6h21.3v36.9H100.1z M140.8,66l5.6,5.6l-2.2,2.3l-5.6-5.6L140.8,66z
		 M143.1,97.3h-18.8c5.2-5.2,11.4-11.4,18.8-18.9V97.3z M136.8,70l5.6,5.6c-5.8,5.9-39.3,39.4-44.9,45.1l-2.8-2.8l-2.8-2.8
		C97.7,109.2,131,75.8,136.8,70z M90.5,117.1l1.6,1.6l3.3,3.3c-2.1,1.1-6,3.1-9.7,4.9C87.2,123.9,89.4,119.4,90.5,117.1z
		 M150.9,67.1c0,0-0.1,0.1-0.2,0.2l-2.6,2.6l-5.6-5.6l2.6-2.6c0.1-0.1,0.1-0.1,0.2-0.2L150.9,67.1z M89.9,52.2v12h-2.4
		c-0.7,0-1.2,0.6-1.2,1.2c0,0.7,0.5,1.2,1.2,1.2h3.6c0.7,0,1.2-0.6,1.2-1.2V52.2h50.8v8l-7.1,7.2c-14.3,14.4-24.2,24.3-31.1,31.2
		c0.3-0.5,0.7-1,1.2-1.3H92.3V79.7c0-0.7-0.5-1.2-1.2-1.2h-3.6c-0.7,0-1.2,0.5-1.2,1.2c0,0.7,0.5,1.2,1.2,1.2h2.4v16.3H74.2v-2.4
		c0-0.7-0.6-1.2-1.2-1.2c-0.7,0-1.2,0.6-1.2,1.2v3.6c0,0.7,0.6,1.2,1.2,1.2h30.7c-14.4,14.5-14.4,14.5-14.4,14.5
		c-0.1,0.1-0.2,0.3-3.7,7.5c-2,4.2-2.9,6.1-3.3,7.1c-0.1,0.2-0.2,0.4-0.2,0.7v7.1H40.4V99.7h17.2c0.7,0,1.2-0.5,1.2-1.2v-3.6
		c0-0.7-0.6-1.2-1.2-1.2c-0.7,0-1.2,0.6-1.2,1.2v2.4h-16V52.2H89.9z"/>
	<path class="st1" d="M144.3,140.3H39.2c-1.4,0-2.5-1.1-2.5-2.5V51c0-1.4,1.1-2.5,2.5-2.5h105.1c1.4,0,2.5,1.1,2.5,2.5v7.1
		c0.3,0.2,0.6,0.4,0.9,0.6l6,6c0.8,0.8,1.1,1.9,0.8,3c-0.2,0.8-0.6,1.6-1.2,2.2l-2.7,2.7c-0.1,0.3-0.3,0.6-0.5,0.8
		c-0.2,0.2-0.5,0.4-0.8,0.5l-2.4,2.4v61.4C146.8,139.2,145.7,140.3,144.3,140.3z M39.2,118.9l0,19l17.2,0H39.2V118.9z M98.9,131.1
		C98.9,131.1,98.9,131.1,98.9,131.1v6.8V131.1z M101.4,135.4h40.5V101h-19.5c-22.5,22.6-23.1,23.2-23.1,23.2l-0.5,0.4
		c-0.9,0.5-3.5,1.8-12.9,6.6v4.3h10.7v-4.4c0-1.4,1.1-2.5,2.5-2.5c1.4,0,2.5,1.1,2.5,2.5L101.4,135.4L101.4,135.4z M41.7,135.4h39.2
		v-5.8c0-0.4,0.1-0.9,0.3-1.2c0.4-1.1,1.3-3.1,3.3-7.1c3.6-7.5,3.7-7.6,4-7.9c0,0,0.3-0.3,12.4-12.4H73c-1.4,0-2.5-1.1-2.5-2.5v-3.6
		c0-1.4,1.1-2.5,2.5-2.5c1.4,0,2.5,1.1,2.5,2.5v1.2h13.2V82.2h-1.2c-1.4,0-2.5-1.1-2.5-2.5c0-1.4,1.1-2.5,2.5-2.5h3.6
		c1.4,0,2.5,1.1,2.5,2.5v16.3h12.1l36.2-36.4v-6.3H93.6v12c0,1.4-1.1,2.5-2.5,2.5h-3.6c-1.4,0-2.5-1.1-2.5-2.5
		c0-1.4,1.1-2.5,2.5-2.5h1.2v-9.5h-47v42.6h13.5v-1.2c0-1.4,1.1-2.5,2.5-2.5c1.4,0,2.5,1.1,2.5,2.5v3.6c0,1.4-1.1,2.5-2.5,2.5h-16
		V135.4z M83.3,129.6L83.3,129.6v5.1V129.6z M90.9,119.2c-0.7,1.5-1.6,3.3-2.4,5c1.8-0.9,3.6-1.8,4.9-2.5L90.9,119.2z M93.7,115.1
		l3.8,3.8l43.2-43.3l-3.9-3.9L93.7,115.1z M89.8,115.9c-0.2,0.5-0.5,1.1-0.9,1.7c0.2-0.4,0.4-0.7,0.5-1.1L89.8,115.9z M91.1,79.7
		l0,18.8L91.1,79.7z M127.3,96.1h14.6V81.4L127.3,96.1z M143.6,67.1l4.5,4.5l-1.1,1.1l0.9-0.9l0.3-0.1l0.1-0.3l-0.2,0.2L143.6,67.1z
		 M140.3,68.2l3.9,3.9l0.5-0.5l-3.9-3.9L140.3,68.2z M144.3,64.2l3.9,3.9l1-1l-3.9-3.9L144.3,64.2z M87.5,65.4l3.6,0l0-14.4v14.4
		H87.5z"/>
	<path class="st0" d="M70.8,152.6l-9.9-3.1l-0.9,2.8l9.9,3.1L70.8,152.6z"/>
</g>
</svg>
