<svg width="192" height="34" viewBox="0 0 192 34" fill="none" xmlns="http://www.w3.org/2000/svg">
<path fill-rule="evenodd" clip-rule="evenodd" d="M117.213 32.3836C111.027 32.3836 104.905 32.3836 98.6946 32.3836C98.6946 23.8023 98.6946 15.2794 98.6946 6.75643C98.6193 6.73758 98.545 6.71941 98.4706 6.70022C98.1591 7.5218 97.8407 8.34098 97.5363 9.16497C94.7841 16.6189 92.0243 24.0694 89.3001 31.5339C89.0455 32.2304 88.7181 32.4734 87.9728 32.4617C85.1413 32.4155 82.3082 32.434 79.4754 32.4511C78.9192 32.4542 78.5511 32.3771 78.3256 31.7529C74.6706 21.655 70.9886 11.5674 67.3171 1.47629C67.2592 1.31623 67.2555 1.13731 67.2126 0.888124C73.8749 0.888124 80.4558 0.888124 87.1798 0.888124C86.6201 2.77705 86.0982 4.57754 85.5526 6.36981C85.238 7.40458 85.1732 8.78281 84.4679 9.35178C83.8154 9.87825 82.46 9.53208 81.4137 9.57389C81.2348 9.58109 81.0559 9.6061 80.6896 9.64038C81.6461 13.0398 82.5871 16.3827 83.5279 19.726C83.6057 19.7225 83.6824 19.7187 83.7605 19.7163C84.6564 16.7467 85.5525 13.7778 86.4501 10.8085C87.3726 7.75249 88.3062 4.69886 89.2133 1.63771C89.3699 1.1085 89.5146 0.758546 90.2028 0.76026C99.1001 0.788023 107.998 0.783232 116.896 0.789402C116.966 0.789402 117.037 0.819913 117.21 0.859673C117.21 3.67472 117.21 6.51514 117.21 9.4882C114.306 9.4882 111.388 9.4882 108.384 9.4882C108.384 10.6121 108.384 11.6071 108.384 12.7324C110.196 12.7324 112.027 12.7324 113.939 12.7324C113.939 15.2317 113.939 17.6043 113.939 20.0783C112.083 20.0783 110.28 20.0783 108.388 20.0783C108.388 21.3091 108.388 22.4399 108.388 23.6546C111.322 23.6546 114.218 23.6546 117.213 23.6546C117.213 26.5766 117.213 29.4184 117.213 32.3836Z" fill="black"/>
<path fill-rule="evenodd" clip-rule="evenodd" d="M42.9178 32.4648C39.5702 32.4648 36.3169 32.4648 32.9457 32.4648C32.9457 28.5121 32.9457 24.6074 32.9457 20.6061C31.3364 20.6061 29.8421 20.6061 28.2492 20.6061C28.2492 24.5327 28.2492 28.4408 28.2492 32.4325C24.8719 32.4325 21.5908 32.4325 18.2354 32.4325C18.2354 21.9305 18.2354 11.4538 18.2354 0.897949C22.3297 0.897949 26.4068 0.897949 30.5457 0.897949C30.5457 3.76168 30.5457 6.57432 30.5457 9.50558C29.801 9.50558 29.0944 9.50558 28.3061 9.50558C28.3061 10.6171 28.3061 11.6132 28.3061 12.7001C29.7716 12.7001 31.2685 12.7001 32.8836 12.7001C32.8836 8.78065 32.8836 4.87907 32.8836 0.89864C36.2802 0.89864 39.5593 0.89864 42.9175 0.89864C42.9178 11.3993 42.9178 21.8736 42.9178 32.4648Z" fill="black"/>
<path fill-rule="evenodd" clip-rule="evenodd" d="M138.81 20.7049C141.279 24.3858 143.916 28.3172 146.684 32.4433C145.826 32.4433 145.187 32.4433 144.549 32.4433C141.826 32.4433 139.103 32.4073 136.381 32.4649C135.546 32.4827 135.066 32.1961 134.61 31.525C133.245 29.5141 131.811 27.5494 130.4 25.5689C130.198 25.2872 129.976 25.0195 129.59 24.5218C129.59 27.3019 129.59 29.815 129.59 32.384C126.219 32.384 122.965 32.384 119.618 32.384C119.618 21.9193 119.618 11.4498 119.618 0.973489C119.668 0.937843 119.728 0.860722 119.787 0.861064C124.248 0.896368 128.733 0.662949 133.167 1.03792C141.013 1.70184 145.329 9.47761 141.939 16.6141C141.252 18.0599 139.967 19.2215 138.81 20.7049ZM129.618 14.973C130.957 14.9799 132.135 14.7372 132.882 13.589C133.51 12.6255 133.471 11.564 132.862 10.6149C132.127 9.46733 130.963 9.18558 129.618 9.25927C129.618 11.1746 129.618 13.0361 129.618 14.973Z" fill="black"/>
<path fill-rule="evenodd" clip-rule="evenodd" d="M167.383 0.796872C167.383 3.95022 167.383 6.98499 167.383 10.1311C164.896 10.1311 162.471 10.1253 160.047 10.1329C157.082 10.1418 154.67 11.9923 153.87 14.8594C153.054 17.7845 154.141 20.7521 156.613 22.2702C157.893 23.0561 159.296 23.3461 160.79 23.1695C161.692 23.0633 162.301 22.7236 162.123 21.6412C162.049 21.1905 162.111 20.7175 162.111 20.168C160.347 20.168 158.689 20.168 156.939 20.168C156.939 17.7482 156.939 15.4168 156.939 13.0147C161.613 13.0147 166.273 13.0147 171 13.0147C171.02 13.4141 171.05 13.7674 171.05 14.1211C171.054 18.916 171.033 23.7111 171.073 28.5059C171.078 29.2586 170.83 29.7193 170.227 30.1066C158.718 37.4861 145.02 31.2833 143.621 18.3957C142.638 9.338 148.758 1.31786 158.383 0.820868C161.348 0.667999 164.327 0.796872 167.383 0.796872Z" fill="black"/>
<path fill-rule="evenodd" clip-rule="evenodd" d="M191.636 9.58574C188.55 9.58574 185.623 9.58574 182.642 9.58574C182.642 10.698 182.642 11.6937 182.642 12.8244C184.52 12.8244 186.352 12.8244 188.248 12.8244C188.248 15.2984 188.248 17.6371 188.248 20.108C186.353 20.108 184.521 20.108 182.639 20.108C182.639 21.3474 182.639 22.4555 182.639 23.7234C183.101 23.7234 183.521 23.7234 183.942 23.7234C186.193 23.7234 188.444 23.745 190.694 23.7114C191.382 23.7011 191.662 23.8821 191.65 24.6221C191.611 26.9816 191.628 29.3418 191.64 31.702C191.643 32.2083 191.552 32.5233 190.935 32.5216C185.053 32.5003 179.173 32.4976 173.292 32.4852C173.228 32.4852 173.163 32.4328 173.036 32.378C173.036 21.9267 173.036 11.4514 173.036 0.887983C173.358 0.865019 173.673 0.822169 173.989 0.822169C179.506 0.817713 185.025 0.835537 190.542 0.801604C191.385 0.796463 191.677 1.00897 191.656 1.89328C191.597 4.39094 191.636 6.891 191.636 9.58574Z" fill="black"/>
<path fill-rule="evenodd" clip-rule="evenodd" d="M63.7036 32.4671C57.516 32.4671 51.4278 32.4671 45.2539 32.4671C45.2539 21.9438 45.2539 11.4695 45.2539 0.906494C51.3753 0.906494 57.4892 0.906494 63.6912 0.906494C63.6912 3.73971 63.6912 6.57705 63.6912 9.53948C60.7405 9.53948 57.8182 9.53948 54.8387 9.53948C54.8387 10.6613 54.8387 11.6591 54.8387 12.7741C56.7095 12.7741 58.5431 12.7741 60.4413 12.7741C60.4413 15.2351 60.4413 17.5799 60.4413 20.0467C58.624 20.0467 56.7915 20.0467 54.8696 20.0467C54.8696 21.2984 54.8696 22.4333 54.8696 23.6943C57.7894 23.6943 60.71 23.6943 63.7036 23.6943C63.7036 26.6656 63.7036 29.5139 63.7036 32.4671Z" fill="black"/>
<path fill-rule="evenodd" clip-rule="evenodd" d="M5.9178 9.56177C3.84374 9.56177 1.96508 9.56177 0 9.56177C0 6.64321 0 3.80175 0 0.888672C5.28145 0.888672 10.5588 0.888672 15.9088 0.888672C15.9088 11.4089 15.9088 21.8794 15.9088 32.4332C12.6023 32.4332 9.32259 32.4332 5.9178 32.4332C5.9178 24.8521 5.9178 17.2841 5.9178 9.56177Z" fill="black"/>
</svg>
