<?xml version="1.0" encoding="utf-8"?>
<!-- Generator: Adobe Illustrator 24.3.0, SVG Export Plug-In . SVG Version: 6.00 Build 0)  -->
<svg version="1.1" id="Layer_1" xmlns="http://www.w3.org/2000/svg" xmlns:xlink="http://www.w3.org/1999/xlink" x="0px" y="0px"
	 viewBox="0 0 180 180" style="enable-background:new 0 0 180 180;" xml:space="preserve">
<style type="text/css">
	.st0{fill:#4B1790;}
	.st1{fill:#981CC9;}
</style>
<g>
	<path class="st0" d="M113.1,160.4l-35.3,0c-3.2,0-6-0.9-8.3-2.6c-4.7-3.3-7.2-8.2-7.4-14.3c-0.1-2.2-0.1-4.5,0-6.7l0-3
		c0-0.2,0-0.5,0-0.7l0.2-2l2-0.2h11l0,4.1c0,1.5,0,3,0,4.5c0,0,0,0.1,0,0.1c0-0.4,0.1-0.7,0.1-1.2l0-30.5c0-23.3,0-46.6,0-69.9
		c0-2.4,0.3-4.5,0.8-6.5c1.7-6.3,5.7-10.3,11.7-11.7c0.5-0.1,1-0.1,1.4-0.1l0.8,0c0.1,0,0.2,0,0.3,0l0.4,0l53.9,0.2
		c0.6,0.1,1.2,0.2,1.8,0.2c1.1,0.1,2.4,0.2,3.7,0.8c4.3,1.9,7.2,5.4,8.7,10.9c0.2,0.8,0.6,2.3,0.6,2.3l0.1,0.5l-0.1,110.9l-0.2,1
		c-0.2,0.8-0.4,1.6-0.6,2.4c-2.2,6.9-8,11.4-14.7,11.4L113.1,160.4z M66.4,135.4l0,1.4c0,2.2,0,4.3,0,6.5c0.2,4.8,2,8.4,5.5,10.9
		c1.6,1.2,3.5,1.7,5.7,1.7l36.9,0c-3.4-1.1-5.8-4.2-5.8-8c0-4.7,3.8-8.4,8.4-8.4h0c2.3,0,4.4,0.9,6,2.5c1.6,1.6,2.4,3.7,2.4,6
		c0,3.8-2.4,6.9-5.7,7.9l23.8,0c4.8,0,8.9-3.3,10.5-8.3c0.2-0.7,0.4-1.4,0.5-2.1l0.2-0.8V34.8c-0.1-0.4-0.3-1.3-0.5-1.9
		c-1.2-4.1-3.1-6.6-6.2-8c-0.6-0.3-1.4-0.4-2.4-0.5c-0.7-0.1-1.4-0.1-2.1-0.3l-53-0.2c-0.3,0-0.6,0.1-0.9,0.1l-0.8,0
		c-0.1,0-0.2,0-0.4,0c-4.4,1-7.1,3.8-8.4,8.5c-0.4,1.5-0.6,3.3-0.6,5.3c0,23.3,0,46.6,0,69.9l0,30.5c0,1-0.1,2-0.3,2.9
		c-0.5,2.1-2.4,3.9-4.2,3.9c-1.9,0-3.7-1.9-4.2-3.6c-0.2-0.6-0.3-1.3-0.3-2c0-1.4,0-2.7,0-4.1H66.4z M117.3,143.9
		c-2.2,0-3.9,1.8-3.9,4c0,2.2,1.7,3.9,3.9,3.9c2.3,0,4-1.7,4-3.9c0-1.1-0.4-2.1-1.1-2.9C119.4,144.3,118.4,143.9,117.3,143.9z"/>
	<path class="st1" d="M74.1,105.9l-2.4-0.9c-0.3-0.1-0.5-0.2-0.7-0.3l-11.6-4.9c-10.4-4.4-20.8-8.7-31.1-13.1
		c-4-1.7-6.6-4.8-7.4-8.9l-0.2-0.2L20.5,77l0.1-3l0.3-0.9c0.2-0.8,0.4-1.6,0.7-2.3c6.1-14.5,12.2-29,18.4-43.5
		c1.5-3.6,4.4-5.9,8.4-6.8c0.4-0.1,0.8-0.2,1.2-0.2l0.5-0.1l1.1,0l0.7,0.1c0.4,0.1,0.8,0.1,1.3,0.3l1,0.4c1.7,0.6,3.4,1.3,5.1,2
		c2.5,1.1,4.9,2.2,7.3,3.3c1.7,0.8,3.4,1.5,5.1,2.3c1.9,0.9,2.3,2.4,2.3,3.5c0,2,0,4,0,6.1l0,2.6c0,0.2,0,0.3-0.1,0.6l-0.3,2
		l-1.9-0.6l-5.3-2.2c-0.1-0.1-0.3-0.1-0.4-0.2c-0.1,0.1-0.1,0.2-0.2,0.3c-2.7,4.2-5.7,6.7-9.4,7.9c-3.3,1.1-6.8,1.1-10.9,0.1
		l-5,11.8c7.8,4.9,10.6,11.8,8.3,20.6l4.8,2c6.2,2.6,12.4,5.3,18.6,7.9c1.2,0.5,1.7,1.4,1.7,2.6c0,2.5,0,5,0,7.6L74.1,105.9z
		 M23.7,76.6l0.1,0.3c0.6,3.3,2.4,5.6,5.6,6.9c10.4,4.4,20.8,8.8,31.1,13.1l10.3,4.3v-0.4c0-2.5,0-4.9,0-7.3
		c-6.2-2.6-12.3-5.2-18.4-7.8l-7.4-3.2l0.4-1.4c2.6-8.4,0.1-14.6-7.6-18.9l-1.2-0.7l0.5-1.3c0.1-0.4,0.2-0.6,0.3-0.8L42.7,47
		c0.3-0.8,0.8-1.9,2.2-1.9c0.4,0,0.7,0.1,1.2,0.2c3.7,1,6.6,1,9.3,0c3.1-1,5.5-3.1,7.8-6.6c0.6-1,1.2-1.9,2.5-1.9
		c0.6,0,1.1,0.2,1.9,0.6l3.1,1.3v-0.8c0-2,0-4.1,0-6.1c0-0.3,0-0.4-0.4-0.6c-1.7-0.8-3.4-1.5-5.2-2.3c-2.4-1.1-4.9-2.2-7.3-3.3
		c-1.6-0.7-3.3-1.3-4.9-1.9l-1.1-0.4c-0.1-0.1-0.4-0.1-0.6-0.1L51,23.1l-0.8,0.1c-0.4,0.1-0.7,0.1-1.1,0.2c-3,0.7-5,2.3-6.2,4.9
		c-6.2,14.5-12.3,29-18.4,43.5c-0.3,0.6-0.4,1.3-0.6,1.9l-0.2,0.8V76.6z"/>
	<path class="st1" d="M74.1,117.5l-3.3-0.8c-1.1-0.3-2.1-0.5-3.1-0.7l-7.6-2c-8.4-2.2-16.8-4.4-25.1-6.7c-4.7-1.3-7.8-4.3-8.9-8.6
		c-0.6-2.2-0.4-5.2,0.4-7.4l0.5-1.5l1.5,0.5c0.5,0.2,0.7,0.2,1,0.3l42,17.7c2.4,1,2.8,2.3,2.6,4.5c0,0.6,0,1.1,0,1.8L74.1,117.5z
		 M29.2,93.9c-0.2,1.4-0.2,2.9,0.1,4c0.8,3.3,3,5.4,6.6,6.3c8.4,2.3,16.7,4.5,25.1,6.7l7.6,2c0.8,0.2,1.5,0.4,2.3,0.6
		c0-0.3,0-0.7,0-1c0.1-0.7,0-0.9,0-1c0,0,0,0,0,0c0,0-0.2-0.1-0.7-0.3L29.2,93.9z"/>
	<path class="st1" d="M72.1,85.3c-2.6,0-5.1-0.7-7.2-2.1c-4.5-2.9-7.1-7.2-7.6-12.6c-0.8-7.7,1.7-14.3,7.4-19.5
		c1.8-1.6,3.8-2.8,6-3.6c0.3-0.1,0.6-0.2,0.9-0.3l2.4-0.7v38.7L72.1,85.3z M70.8,50.9c-1.5,0.6-2.8,1.5-4,2.6
		c-5,4.5-7.1,10-6.4,16.7c0.5,4.5,2.5,7.8,6.2,10.2c1.3,0.9,2.7,1.4,4.2,1.5V50.9z"/>
	<path class="st1" d="M74.1,129l-21.8-2.9c-3-0.4-6-0.8-9-1.2l-0.6-0.1c-1.7-0.2-3.5-0.4-5.2-1.3c-4-2.1-6.2-5.4-6.6-9.8
		c0-0.4,0-0.8,0-1.2l0.2-2.4l15.6,4.1c8.5,2.2,16.9,4.5,25.4,6.7c1.8,0.5,2,1.9,2,2.6c0,0.8,0,1.6,0,2.5V129z M34.2,114.1
		c0.5,2.9,2,5,4.8,6.5c1.2,0.6,2.6,0.8,4,1l0.6,0.1c3,0.4,6,0.8,9.1,1.2l18.2,2.4c0-0.5,0-1,0-1.4c-8.4-2.2-16.7-4.4-25-6.6
		L34.2,114.1z"/>
	<path class="st0" d="M152.4,137.8H85.1c-2.2,0-3-0.9-3-3V39c0-2.1,0.9-3,3-3l43,0l24.4,0V137.8z M85.9,134h62.7V39.9H85.9V134z"/>
</g>
</svg>
