<?xml version="1.0" encoding="utf-8"?>
<!-- Generator: Adobe Illustrator 24.3.0, SVG Export Plug-In . SVG Version: 6.00 Build 0)  -->
<svg version="1.1" id="Layer_1" xmlns="http://www.w3.org/2000/svg" xmlns:xlink="http://www.w3.org/1999/xlink" x="0px" y="0px"
	 viewBox="0 0 171 171" style="enable-background:new 0 0 171 171;" xml:space="preserve">
<style type="text/css">
	.st0{fill:#571387;}
	.st1{fill:#941CD5;}
	.st2{fill:none;stroke:#571387;stroke-width:4;stroke-miterlimit:10;}
</style>
<g>
	<path class="st0" d="M87.5,27.4c1.2-7-0.9-1.5-2-1.5c-1.1,0-5.7-5.3-2,1.5v54.1c0,51.6-0.1,19.4,2,19.4c1.1,0,1.8,9.2,1.8-1.5
		L87.5,27.4z"/>
	<path class="st0" d="M87.5,45.8c0-1.1-0.9-2-2-2c-1.1,0-2,0.9-2,2v5.6c0,1.1,0.9,2,2,2c1.1,0,2-0.9,2-2V45.8z"/>
	<path class="st0" d="M101.1,103.7l-5.9-3.4c-1-0.6-2.2-0.2-2.7,0.7c-0.5,1-0.2,2.2,0.7,2.7l5.9,3.4c0.3,0.2,0.7,0.3,1,0.3
		c0.7,0,1.4-0.4,1.7-1C102.3,105.5,102,104.3,101.1,103.7z"/>
	<path class="st0" d="M124.6,117.2l-5.9-3.4c-1-0.6-2.2-0.2-2.7,0.7c-0.5,1-0.2,2.2,0.7,2.7l5.9,3.4c0.3,0.2,0.7,0.3,1,0.3
		c0.7,0,1.4-0.4,1.7-1C125.9,118.9,125.5,117.7,124.6,117.2z"/>
	<path class="st0" d="M133.5,122.2l-44-25.1c-1-0.6,0.5,1.4-0.1,2.3c-0.5,1-2.9,0.6-1.9,1.1l44.1,25.1c0.3,0.2-3.2-2.5-2.9-2.5
		c0.7,0,1,0.4,1.4-0.2C130.6,122,134.5,122.8,133.5,122.2z"/>
	<path class="st0" d="M89.3,97l-2.8-1.6c-0.1,0-0.2,0-0.2-0.1c-0.1-0.1-0.2-0.1-0.4-0.1c-0.1,0-0.3,0-0.4,0c-0.1,0-0.2,0-0.4,0
		c-0.1,0-0.3,0.1-0.4,0.1c-0.1,0-0.2,0-0.2,0.1L81.8,97c-1,0.5-1.3,1.8-0.7,2.7c0.4,0.6,1,1,1.7,1c0.3,0,0.7-0.1,1-0.3l1.8-1l1.8,1
		c0.3,0.2,0.7,0.3,1,0.3c0.7,0,1.4-0.4,1.7-1C90.6,98.7,90.2,97.5,89.3,97z"/>
	<path class="st0" d="M24.7,136.5l-1-1.7l16-9.2l2.8-1.6c1-0.5,1.3-1.8,0.7-2.7c-0.5-1-1.8-1.3-2.7-0.7l-2.8,1.6l-16,9.2l-1-1.7"/>
	<path class="st0" d="M64.1,107.1l-5.9,3.4c-1,0.5-1.3,1.8-0.7,2.7c0.4,0.6,1,1,1.7,1c0.3,0,0.7-0.1,1-0.3l5.9-3.4
		c19.2-11,21.6-11.9,19.9-13.8C83.9,94.5,76.1,100.2,64.1,107.1z"/>
	<path class="st0" d="M75.9,100.3l-5.9,3.4c-1,0.5-1.3,1.8-0.7,2.7c0.4,0.6,1,1,1.7,1c0.3,0,0.7-0.1,1-0.3l5.9-3.4
		c1-0.5,1.3-1.8,0.7-2.7C78,100.1,76.8,99.8,75.9,100.3z"/>
	<path class="st0" d="M59.4,109.7l-19.4,11.2c-1,0.5,0.5,0.1,1,1c0.4,0.6-2.2,1-1.5,1c0.3,0,2.2,1.6,2.5,1.4l19.4-11.2
		c1-0.5-1.1,0.1-1.6-0.8C59.2,111.3,60.4,109.1,59.4,109.7z"/>
	<path class="st0" d="M150.2,129.5l-1,1.7l-16-9.1l-2.8-1.6c-1-0.6-2.2-0.2-2.7,0.7c-0.5,1-0.2,2.2,0.7,2.7l2.8,1.6l16,9.1l-1,1.7"
		/>
	<path class="st0" d="M81.5,24.7h2v15v3.2c0,1.1,0.9,2,2,2c1.1,0,2-0.9,2-2v-3.2v-15h2"/>
	<path class="st1" d="M134.2,130.3c0-0.1,0.1-0.2,0.1-0.2V69.9c0,0,0-0.1,0-0.1c0-0.3-0.1-0.6-0.2-0.9c0,0,0,0,0,0c0,0,0,0,0,0
		c-0.2-0.3-0.4-0.5-0.6-0.6c0,0,0-0.1-0.1-0.1L86.5,41.5c-0.1,0-0.1,0-0.2-0.1c-0.1-0.1-0.3-0.1-0.4-0.1c-0.1,0-0.3,0-0.4,0
		c-0.1,0-0.2,0-0.4,0c-0.1,0-0.3,0.1-0.4,0.1c-0.1,0-0.1,0-0.2,0.1L37.8,68.2c0,0,0,0,0,0h0c0,0,0,0,0,0c-0.3,0.2-0.5,0.4-0.6,0.6
		C37.1,68.9,37,69,37,69.1c-0.1,0.2-0.2,0.4-0.2,0.7c0,0.1,0,0.1,0,0.2V130c0,0.7,0.4,1.4,1,1.7l46.7,26.7c0.2,0.1,0.4,0.1,0.7,0.2
		c0.1,0,0.2,0.1,0.3,0.1c0.3,0,0.7-0.1,1-0.3l46.7-26.7c0.1,0,0.1-0.1,0.2-0.2c0.1-0.1,0.2-0.2,0.3-0.3c0.1-0.1,0.1-0.2,0.2-0.3
		c0.1-0.1,0.1-0.2,0.2-0.3C134.2,130.5,134.2,130.4,134.2,130.3z M85.5,45.5l42.7,24.4L85.5,94.3L42.8,69.9L85.5,45.5z M87.5,97.8
		l42.8-24.4v55.5l-42.8,24.4V97.8z M83.5,153.3l-42.8-24.4V73.4l42.8,24.4V153.3z"/>
	<path class="st2" d="M85,25.7c3.7,0,6.7-3,6.7-6.7c0-3.7-3-6.7-6.7-6.7c-3.7,0-6.7,3-6.7,6.7C78.3,22.7,81.3,25.7,85,25.7z"/>
	<path class="st2" d="M153.4,143.4c3.7,0,6.7-3,6.7-6.7c0-3.7-3-6.7-6.7-6.7c-3.7,0-6.7,3-6.7,6.7
		C146.7,140.4,149.7,143.4,153.4,143.4z"/>
	<path class="st2" d="M17.6,142.9c3.7,0,6.7-3,6.7-6.7c0-3.7-3-6.7-6.7-6.7s-6.7,3-6.7,6.7C10.9,139.9,13.9,142.9,17.6,142.9z"/>
</g>
</svg>
