<?xml version="1.0" encoding="utf-8"?>
<!-- Generator: Adobe Illustrator 24.3.0, SVG Export Plug-In . SVG Version: 6.00 Build 0)  -->
<svg version="1.1" id="Layer_1" xmlns="http://www.w3.org/2000/svg" xmlns:xlink="http://www.w3.org/1999/xlink" x="0px" y="0px"
	 viewBox="0 0 180 180" style="enable-background:new 0 0 180 180;" xml:space="preserve">
<style type="text/css">
	.st0{fill:#981CC9;}
	.st1{fill:#4B1790;}
</style>
<g>
	<path class="st0" d="M168,137.8l-17.3-18l9.7-8c0.5-0.4,0.8-1.1,0.6-1.8c-0.2-0.7-0.7-1.2-1.4-1.3l-7.9-1.7V72.1
		c4.3-0.9,7.5-4.4,7.5-8.6V48.4c0,0,0,0,0,0c0-0.1,0-0.2,0-0.3c0,0,0-0.1,0-0.1c0-0.1,0-0.2-0.1-0.2c0,0,0-0.1,0-0.1
		c0-0.1-0.1-0.2-0.2-0.3c0,0,0,0,0,0c-0.1-0.1-0.1-0.1-0.2-0.2l-19.4-19.7c-0.4-0.4-0.9-0.6-1.4-0.6h-103c-0.5,0-1.1,0.2-1.4,0.6
		L14,47.2c-0.1,0.1-0.1,0.1-0.2,0.2c0,0,0,0,0,0c-0.1,0.1-0.1,0.2-0.2,0.3c0,0,0,0.1,0,0.1c0,0.1-0.1,0.1-0.1,0.2c0,0,0,0.1,0,0.1
		c0,0.1,0,0.2,0,0.3c0,0,0,0,0,0v15.1c0,4.2,3.2,7.7,7.5,8.6v67.1c0,1,0.9,1.8,1.9,1.8h97l0,0.3c0.1,0.7,0.6,1.2,1.2,1.5
		c0.7,0.2,1.4,0.1,2-0.3l9.7-8l17.3,18.1c0.4,0.4,0.9,0.6,1.5,0.6c0.5,0,0.9-0.1,1.3-0.5l14.9-12.3c0.4-0.3,0.6-0.8,0.7-1.2
		C168.5,138.6,168.4,138.1,168,137.8z M155.2,63.5c0,2.7-2.2,4.9-5,5.2c-0.2,0-0.3-0.1-0.5-0.1c-0.2,0-0.5,0-0.7,0.1h-7.8
		c-3.1,0-5.7-2.4-5.7-5.3V50.2h19.7L155.2,63.5L155.2,63.5z M136.9,30.6l15.8,16.1h-18.1l-10.2-16.1H136.9z M120,30.6l10.2,16.1
		h-18.8l-1.1-3l-4.8-13.1H120z M131.6,50.2v13.3c0,2.9-2.6,5.3-5.7,5.3h-8.3c-3.1,0-5.7-2.4-5.7-5.3V50.2H131.6z M88.2,30.6h13
		l1.1,3l4.8,13.1h-19V30.6z M88.2,50.2H108v13.3c0,2.9-2.6,5.3-5.7,5.3h-8.3c-3.1,0-5.7-2.4-5.7-5.3L88.2,50.2L88.2,50.2z
		 M71.3,30.6h13v16.1h-19l4.8-13.1L71.3,30.6z M84.3,50.2v13.3c0,2.9-2.6,5.3-5.7,5.3h-8.3c-3.1,0-5.7-2.4-5.7-5.3V50.2H84.3z
		 M67.2,30.6l-4.8,13.1l-1.1,3H42.4l10.2-16.1H67.2z M60.7,50.2v13.3c0,2.9-2.6,5.3-5.7,5.3h-8.3c-3.2,0-5.7-2.4-5.7-5.3V50.2H60.7z
		 M35.7,30.6h12.5L37.9,46.6H19.8L35.7,30.6z M22.9,68.6c-0.2,0-0.3,0-0.5,0.1c-2.8-0.3-5-2.5-5-5.2V50.2h19.7v13.3
		c0,2.9-2.6,5.3-5.7,5.3h-7.8C23.3,68.7,23.1,68.6,22.9,68.6z M78.8,137.4H43.8V85.8c0-1.4,1.3-2.6,2.8-2.6h29.3
		c1.6,0,2.8,1.2,2.8,2.6V137.4z M82.6,137.4V85.8c0-3.4-3-6.2-6.7-6.2H46.7c-3.7,0-6.7,2.8-6.7,6.2v51.6H24.8v-65h6.6
		c3.1,0,5.9-1.4,7.7-3.5c1.8,2.1,4.5,3.5,7.7,3.5H55c3.1,0,5.9-1.4,7.7-3.5c1.8,2.1,4.5,3.5,7.7,3.5h8.3c3.1,0,5.9-1.4,7.7-3.5
		c1.8,2.1,4.5,3.5,7.7,3.5h8.3c3.1,0,5.9-1.4,7.7-3.5c1.3,1.6,3.1,2.8,5.3,3.3c0,0,0.1,0,0.1,0c0.7,0.2,1.5,0.2,2.3,0.2h8.3
		c0.6,0,1.2-0.1,1.8-0.2c0,0,0,0,0.1,0c2.4-0.4,4.4-1.7,5.8-3.4c1.8,2.1,4.5,3.5,7.7,3.5h6.6v33.7l-11.9-2.6V85.3
		c0-3.1-2.8-5.7-6.1-5.7H104c-3.4,0-6.1,2.5-6.1,5.7v23.8c0,3.1,2.8,5.7,6.1,5.7h12.6l2.8,22.6H82.6z M114.9,101.3l1.2,9.8H104
		c-1.2,0-2.2-0.9-2.2-2.1V85.3c0-1.1,1-2.1,2.2-2.1h25.8c1.2,0,2.2,0.9,2.2,2.1v17.3l-14.7-3.2c-0.6-0.1-1.3,0-1.7,0.4
		C115.1,100.2,114.9,100.8,114.9,101.3z M151.8,148.7l-17.3-18.1c-0.4-0.4-0.9-0.6-1.4-0.6c-0.5,0-0.9,0.1-1.3,0.4l-8.4,6.9
		l-4.2-33.9l35.9,7.9l-8.4,6.9c-0.4,0.3-0.6,0.8-0.6,1.2c0,0.5,0.1,0.9,0.5,1.3l17.3,18L151.8,148.7z"/>
	<path class="st1" d="M132,102.6l-14.7-3.2c-0.6-0.1-1.3,0-1.7,0.4c-0.5,0.4-0.7,1-0.6,1.5l1.2,9.8c0.2,1.3,0.3,2.4,0.4,3.6
		l2.8,22.6c0.1,1.3,0.3,2.3,0.4,3.6l0,0.3c0.1,0.7,0.6,1.2,1.2,1.5c0.7,0.2,1.4,0.1,2-0.3l9.7-8l17.3,18c0.4,0.4,0.9,0.6,1.5,0.6
		c0.5,0,0.9-0.2,1.3-0.5l14.9-12.3c0.4-0.3,0.6-0.8,0.7-1.2c0-0.5-0.1-0.9-0.5-1.3l-17.3-18l9.7-8c0.5-0.4,0.8-1.1,0.6-1.8
		c-0.2-0.7-0.7-1.2-1.4-1.3l-7.9-1.7L132,102.6z M147.7,106.1l-11.9-2.6L147.7,106.1z M151.8,148.7l-17.3-18
		c-0.4-0.4-0.9-0.6-1.4-0.6c-0.5,0-0.9,0.1-1.3,0.4l-8.4,6.9l-4.2-33.9l35.9,7.9l-8.4,6.9c-0.4,0.3-0.6,0.8-0.6,1.2
		c0,0.5,0.1,0.9,0.5,1.3l17.3,18L151.8,148.7z"/>
	<path class="st1" d="M159.1,48.4c0-0.1,0-0.2,0-0.3c0,0,0-0.1,0-0.1c0-0.1,0-0.2-0.1-0.2c0,0,0-0.1,0-0.1c0-0.1-0.1-0.2-0.2-0.3
		c0,0,0,0,0,0c-0.1-0.1-0.1-0.1-0.2-0.2l-19.4-19.7c-0.4-0.4-0.9-0.6-1.4-0.6h-103c-0.5,0-1.1,0.2-1.4,0.6L14,47.2
		c-0.1,0.1-0.1,0.1-0.2,0.2c0,0,0,0,0,0c-0.1,0.1-0.1,0.2-0.2,0.3c0,0,0,0.1,0,0.1c0,0.1-0.1,0.1-0.1,0.2c0,0,0,0.1,0,0.1
		c0,0.1,0,0.2,0,0.3c0,0,0,0,0,0v15.1c0,4.2,3.2,7.7,7.5,8.6h12.6c2.2-0.5,4.2-1.7,5.5-3.3c1.3,1.6,3.3,2.8,5.5,3.3h12.6
		c2.2-0.5,4.2-1.7,5.5-3.3c1.3,1.6,3.3,2.8,5.5,3.3h12.6c2.2-0.5,4.2-1.7,5.5-3.3c1.3,1.6,3.3,2.8,5.5,3.3h12.6
		c2.2-0.5,4.2-1.7,5.5-3.3c1.3,1.6,3.3,2.8,5.5,3.3H128c2.2-0.5,4.2-1.7,5.5-3.3c1.3,1.6,3.3,2.8,5.5,3.3h12.6
		c4.3-0.9,7.5-4.4,7.5-8.6L159.1,48.4C159.1,48.4,159.1,48.4,159.1,48.4z M37.1,63.5c0,2.9-2.6,5.3-5.7,5.3h-7.8
		c-0.2-0.1-0.4-0.1-0.7-0.1c-0.2,0-0.3,0-0.5,0.1c-2.8-0.3-5-2.5-5-5.2V50.2h19.7L37.1,63.5L37.1,63.5z M37.9,46.6H19.8l15.8-16.1
		h12.5L37.9,46.6z M60.7,63.5c0,2.9-2.6,5.3-5.7,5.3h-8.3c-3.2,0-5.7-2.4-5.7-5.3V50.2h19.7L60.7,63.5L60.7,63.5z M62.4,43.7l-1.1,3
		H42.4l10.2-16.1h14.6L62.4,43.7z M84.3,63.5c0,2.9-2.6,5.3-5.7,5.3h-8.3c-3.1,0-5.7-2.4-5.7-5.3V50.2h19.7L84.3,63.5L84.3,63.5z
		 M84.3,46.6h-19l4.8-13.1l1.1-3h13V46.6z M88.2,30.6h13l1.1,3l4.8,13.1h-19V30.6z M108,63.5c0,2.9-2.6,5.3-5.7,5.3h-8.3
		c-3.1,0-5.7-2.4-5.7-5.3V50.2H108L108,63.5L108,63.5z M110.2,43.7l-4.8-13.1H120l10.2,16.1h-18.8L110.2,43.7z M131.6,63.5
		c0,2.9-2.6,5.3-5.7,5.3h-8.3c-3.1,0-5.7-2.4-5.7-5.3V50.2h19.7L131.6,63.5L131.6,63.5z M124.5,30.6h12.5l15.8,16.1h-18.1
		L124.5,30.6z M155.2,63.5c0,2.7-2.2,4.9-5,5.2c-0.2,0-0.3-0.1-0.5-0.1c-0.2,0-0.5,0-0.7,0.1h-7.8c-3.1,0-5.7-2.4-5.7-5.3V50.2h19.7
		L155.2,63.5L155.2,63.5z"/>
</g>
</svg>
